Topmarks-Book-kernagic.ufo
<glyph name="exclam" format="1">
  <advance width="663"></advance>
  <unicode hex="0021"></unicode>
  <outline>
    <contour>
      <point x="291" y="433" type="line"></point>
      <point x="230" y="1560" type="line"></point>
      <point x="417" y="1560" type="line"></point>
      <point x="357" y="433" type="line"></point>
    </contour>
    <contour>
      <point x="328" y="-6" type="curve" smooth="yes"></point>
      <point x="255" y="-6"></point>
      <point x="215" y="46"></point>
      <point x="215" y="106" type="curve" smooth="yes"></point>
      <point x="215" y="176"></point>
      <point x="272" y="217"></point>
      <point x="329" y="217" type="curve" smooth="yes"></point>
      <point x="402" y="217"></point>
      <point x="442" y="165"></point>
      <point x="442" y="105" type="curve" smooth="yes"></point>
      <point x="442" y="35"></point>
      <point x="385" y="-6"></point>
    </contour>
  </outline>
</glyph>
<glyph name="quotedbl" format="1">
  <advance width="764"></advance>
  <unicode hex="0022"></unicode>
  <outline>
    <contour>
      <point x="469" y="931" type="line"></point>
      <point x="468" y="1456" type="line"></point>
      <point x="635" y="1456" type="line"></point>
      <point x="577" y="931" type="line"></point>
    </contour>
    <contour>
      <point x="170" y="931" type="line"></point>
      <point x="169" y="1456" type="line"></point>
      <point x="335" y="1456" type="line"></point>
      <point x="279" y="931" type="line"></point>
    </contour>
  </outline>
</glyph>
<glyph name="numbersign" format="1">
  <advance width="1206"></advance>
  <unicode hex="0023"></unicode>
  <outline>
    <contour>
      <point x="419" y="583" type="line"></point>
      <point x="693" y="583" type="line"></point>
      <point x="745" y="899" type="line"></point>
      <point x="474" y="899" type="line"></point>
    </contour>
    <contour>
      <point x="189" y="0" type="line"></point>
      <point x="273" y="465" type="line"></point>
      <point x="21" y="465" type="line"></point>
      <point x="29" y="583" type="line"></point>
      <point x="293" y="583" type="line"></point>
      <point x="344" y="899" type="line"></point>
      <point x="86" y="899" type="line"></point>
      <point x="99" y="1026" type="line"></point>
      <point x="365" y="1026" type="line"></point>
      <point x="441" y="1455" type="line"></point>
      <point x="571" y="1455" type="line"></point>
      <point x="497" y="1026" type="line"></point>
      <point x="768" y="1026" type="line"></point>
      <point x="841" y="1455" type="line"></point>
      <point x="974" y="1455" type="line"></point>
      <point x="896" y="1026" type="line"></point>
      <point x="1137" y="1026" type="line"></point>
      <point x="1123" y="899" type="line"></point>
      <point x="874" y="899" type="line"></point>
      <point x="822" y="583" type="line"></point>
      <point x="1071" y="583" type="line"></point>
      <point x="1060" y="465" type="line"></point>
      <point x="804" y="465" type="line"></point>
      <point x="724" y="0" type="line"></point>
      <point x="595" y="0" type="line"></point>
      <point x="672" y="465" type="line"></point>
      <point x="401" y="465" type="line"></point>
      <point x="322" y="0" type="line"></point>
    </contour>
  </outline>
</glyph>
<glyph name="dollar" format="1">
  <advance width="1146"></advance>
  <unicode hex="0024"></unicode>
  <outline>
    <contour>
      <point x="610" y="-22.7872" type="curve"></point>
      <point x="610" y="-196" type="line"></point>
      <point x="546" y="-196" type="line"></point>
      <point x="546" y="-23.4926" type="line"></point>
      <point x="365" y="-16.2018"></point>
      <point x="196" y="68.254"></point>
      <point x="110" y="139" type="curve"></point>
      <point x="161" y="290" type="line"></point>
      <point x="249" y="211.931"></point>
      <point x="406" y="133.862"></point>
      <point x="546" y="126.556" type="curve"></point>
      <point x="546" y="718.241" type="line"></point>
      <point x="530" y="723.773"></point>
      <point x="514" y="729.355"></point>
      <point x="498" y="735" type="curve" smooth="yes"></point>
      <point x="218" y="829"></point>
      <point x="106" y="946"></point>
      <point x="106" y="1178" type="curve" smooth="yes"></point>
      <point x="106" y="1184" type="line"></point>
      <point x="107" y="1436.26"></point>
      <point x="298" y="1579.54"></point>
      <point x="546" y="1585.79" type="curve"></point>
      <point x="546" y="1747" type="line"></point>
      <point x="610" y="1747" type="line"></point>
      <point x="610" y="1584.51" type="line"></point>
      <point x="760" y="1574.88"></point>
      <point x="879" y="1519.33"></point>
      <point x="976" y="1444" type="curve"></point>
      <point x="910" y="1310" type="line"></point>
      <point x="833" y="1368.45"></point>
      <point x="725" y="1426.9"></point>
      <point x="610" y="1435.04" type="curve"></point>
      <point x="610" y="880.87" type="line"></point>
      <point x="935" y="767.735"></point>
      <point x="1018" y="633.398"></point>
      <point x="1018" y="420" type="curve" smooth="yes"></point>
      <point x="1018" y="170.403"></point>
      <point x="866" y="-6.58902"></point>
    </contour>
    <contour>
      <point x="546" y="903.524" type="curve"></point>
      <point x="546" y="1434.72" type="line"></point>
      <point x="385" y="1423.39"></point>
      <point x="282" y="1337.24"></point>
      <point x="280" y="1194" type="curve" smooth="yes"></point>
      <point x="280" y="1189"></point>
      <point x="279" y="1184"></point>
      <point x="279" y="1180" type="curve" smooth="yes"></point>
      <point x="279" y="1044.56"></point>
      <point x="335" y="981.407"></point>
    </contour>
    <contour>
      <point x="610" y="693.526" type="curve"></point>
      <point x="610" y="128.381" type="line"></point>
      <point x="766" y="146.254"></point>
      <point x="849" y="263.09"></point>
      <point x="849" y="423" type="curve" smooth="yes"></point>
      <point x="849" y="534.782"></point>
      <point x="811" y="610.335"></point>
    </contour>
  </outline>
</glyph>
<glyph name="percent" format="1">
  <advance width="1647"></advance>
  <unicode hex="0025"></unicode>
  <outline>
    <contour>
      <point x="252" y="824" type="curve" smooth="yes"></point>
      <point x="26" y="824"></point>
      <point x="-86" y="997"></point>
      <point x="-86" y="1202" type="curve" smooth="yes"></point>
      <point x="-86" y="1441"></point>
      <point x="52" y="1586"></point>
      <point x="257" y="1586" type="curve" smooth="yes"></point>
      <point x="476" y="1586"></point>
      <point x="600" y="1433"></point>
      <point x="600" y="1207" type="curve" smooth="yes"></point>
      <point x="600" y="969"></point>
      <point x="456" y="824"></point>
    </contour>
    <contour>
      <point x="1176" y="89" type="curve" smooth="yes"></point>
      <point x="1317" y="89"></point>
      <point x="1377" y="214"></point>
      <point x="1377" y="360" type="curve" smooth="yes"></point>
      <point x="1377" y="507"></point>
      <point x="1317" y="625"></point>
      <point x="1177" y="625" type="curve" smooth="yes"></point>
      <point x="1035" y="625"></point>
      <point x="973" y="500"></point>
      <point x="973" y="353" type="curve" smooth="yes"></point>
      <point x="973" y="198"></point>
      <point x="1038" y="89"></point>
    </contour>
    <contour>
      <point x="255" y="937" type="curve" smooth="yes"></point>
      <point x="396" y="937"></point>
      <point x="456" y="1062"></point>
      <point x="456" y="1208" type="curve" smooth="yes"></point>
      <point x="456" y="1355"></point>
      <point x="396" y="1473"></point>
      <point x="256" y="1473" type="curve" smooth="yes"></point>
      <point x="114" y="1473"></point>
      <point x="52" y="1348"></point>
      <point x="52" y="1201" type="curve" smooth="yes"></point>
      <point x="52" y="1046"></point>
      <point x="117" y="937"></point>
    </contour>
    <contour>
      <point x="1173" y="-24" type="curve" smooth="yes"></point>
      <point x="945" y="-24"></point>
      <point x="829" y="149"></point>
      <point x="829" y="354" type="curve" smooth="yes"></point>
      <point x="829" y="593"></point>
      <point x="973" y="738"></point>
      <point x="1178" y="738" type="curve" smooth="yes"></point>
      <point x="1397" y="738"></point>
      <point x="1521" y="585"></point>
      <point x="1521" y="359" type="curve" smooth="yes"></point>
      <point x="1521" y="121"></point>
      <point x="1377" y="-24"></point>
    </contour>
    <contour>
      <point x="186" y="0" type="line"></point>
      <point x="1086" y="1560" type="line"></point>
      <point x="1235" y="1560" type="line"></point>
      <point x="340" y="0" type="line"></point>
    </contour>
  </outline>
</glyph>
<glyph name="ampersand" format="1">
  <advance width="1478"></advance>
  <unicode hex="0026"></unicode>
  <outline>
    <contour>
      <point x="599" y="1452" type="curve" smooth="yes"></point>
      <point x="448" y="1452"></point>
      <point x="393" y="1380"></point>
      <point x="393" y="1288" type="curve" smooth="yes"></point>
      <point x="393" y="1188"></point>
      <point x="458" y="1064"></point>
      <point x="532" y="984" type="curve"></point>
      <point x="632" y="1044"></point>
      <point x="773" y="1168"></point>
      <point x="773" y="1289" type="curve" smooth="yes"></point>
      <point x="773" y="1398"></point>
      <point x="696" y="1452"></point>
    </contour>
    <contour>
      <point x="247" y="418" type="curve" smooth="yes"></point>
      <point x="247" y="197"></point>
      <point x="414" y="115"></point>
      <point x="591" y="115" type="curve" smooth="yes"></point>
      <point x="763" y="115"></point>
      <point x="859" y="197"></point>
      <point x="946" y="292" type="curve"></point>
      <point x="495" y="817" type="line"></point>
      <point x="341" y="707"></point>
      <point x="247" y="586"></point>
    </contour>
    <contour>
      <point x="240" y="1291" type="curve" smooth="yes"></point>
      <point x="240" y="1452"></point>
      <point x="349" y="1586"></point>
      <point x="592" y="1586" type="curve" smooth="yes"></point>
      <point x="785" y="1586"></point>
      <point x="927" y="1478"></point>
      <point x="927" y="1293" type="curve" smooth="yes"></point>
      <point x="927" y="1117"></point>
      <point x="736" y="963"></point>
      <point x="613" y="887" type="curve"></point>
      <point x="1025" y="401" type="line"></point>
      <point x="1086" y="496"></point>
      <point x="1140" y="662"></point>
      <point x="1160" y="801" type="curve" smooth="yes"></point>
      <point x="1167" y="846"></point>
      <point x="1171" y="888"></point>
      <point x="1171" y="930" type="curve"></point>
      <point x="1320" y="909" type="line"></point>
      <point x="1312" y="669"></point>
      <point x="1233" y="430"></point>
      <point x="1130" y="286" type="curve"></point>
      <point x="1199" y="210"></point>
      <point x="1260" y="151"></point>
      <point x="1363" y="115" type="curve" smooth="yes"></point>
      <point x="1392" y="105"></point>
      <point x="1427" y="96"></point>
      <point x="1466" y="87" type="curve"></point>
      <point x="1342" y="-12" type="line"></point>
      <point x="1202" y="10"></point>
      <point x="1126" y="101"></point>
      <point x="1045" y="187" type="curve"></point>
      <point x="938" y="71"></point>
      <point x="799" y="-24"></point>
      <point x="588" y="-24" type="curve" smooth="yes"></point>
      <point x="299" y="-24"></point>
      <point x="88" y="139"></point>
      <point x="88" y="401" type="curve" smooth="yes"></point>
      <point x="88" y="658"></point>
      <point x="278" y="829"></point>
      <point x="417" y="921" type="curve"></point>
      <point x="303" y="1029"></point>
      <point x="240" y="1168"></point>
    </contour>
  </outline>
</glyph>
<glyph name="quotesingle" format="1">
  <advance width="559"></advance>
  <unicode hex="0027"></unicode>
  <outline>
    <contour>
      <point x="201" y="994" type="line"></point>
      <point x="199" y="1456" type="line"></point>
      <point x="365" y="1456" type="line"></point>
      <point x="315" y="994" type="line"></point>
    </contour>
  </outline>
</glyph>
<glyph name="parenleft" format="1">
  <advance width="764"></advance>
  <unicode hex="0028"></unicode>
  <outline>
    <contour>
      <point x="465" y="-205" type="line"></point>
      <point x="284" y="81"></point>
      <point x="190" y="374"></point>
      <point x="190" y="671" type="curve" smooth="yes"></point>
      <point x="190" y="966"></point>
      <point x="282" y="1264"></point>
      <point x="471" y="1560" type="curve"></point>
      <point x="618" y="1560" type="line"></point>
      <point x="442" y="1283"></point>
      <point x="357" y="978"></point>
      <point x="357" y="676" type="curve" smooth="yes"></point>
      <point x="357" y="369"></point>
      <point x="445" y="64"></point>
      <point x="614" y="-205" type="curve"></point>
    </contour>
  </outline>
</glyph>
<glyph name="parenright" format="1">
  <advance width="764"></advance>
  <unicode hex="0029"></unicode>
  <outline>
    <contour>
      <point x="146" y="-205" type="line"></point>
      <point x="315" y="64"></point>
      <point x="403" y="369"></point>
      <point x="403" y="676" type="curve" smooth="yes"></point>
      <point x="403" y="978"></point>
      <point x="318" y="1283"></point>
      <point x="142" y="1560" type="curve"></point>
      <point x="289" y="1560" type="line"></point>
      <point x="478" y="1264"></point>
      <point x="570" y="966"></point>
      <point x="570" y="671" type="curve" smooth="yes"></point>
      <point x="570" y="374"></point>
      <point x="476" y="81"></point>
      <point x="295" y="-205" type="curve"></point>
    </contour>
  </outline>
</glyph>
<glyph name="asterisk" format="1">
  <advance width="814"></advance>
  <unicode hex="002A"></unicode>
  <outline>
    <contour>
      <point x="575" y="742" type="line"></point>
      <point x="417" y="1008" type="line"></point>
      <point x="262" y="740" type="line"></point>
      <point x="138" y="815" type="line"></point>
      <point x="335" y="1063" type="line"></point>
      <point x="43" y="1151" type="line"></point>
      <point x="84" y="1276" type="line"></point>
      <point x="366" y="1153" type="line"></point>
      <point x="330" y="1456" type="line"></point>
      <point x="484" y="1456" type="line"></point>
      <point x="463" y="1158" type="line"></point>
      <point x="695" y="1279" type="line"></point>
      <point x="759" y="1154" type="line"></point>
      <point x="497" y="1066" type="line"></point>
      <point x="701" y="815" type="line"></point>
    </contour>
  </outline>
</glyph>
<glyph name="plus" format="1">
  <advance width="1146"></advance>
  <unicode hex="002B"></unicode>
  <outline>
    <contour>
      <point x="500" y="202" type="line"></point>
      <point x="500" y="675" type="line"></point>
      <point x="79" y="675" type="line"></point>
      <point x="79" y="814" type="line"></point>
      <point x="503" y="814" type="line"></point>
      <point x="503" y="1282" type="line"></point>
      <point x="651" y="1282" type="line"></point>
      <point x="651" y="814" type="line"></point>
      <point x="1072" y="814" type="line"></point>
      <point x="1072" y="675" type="line"></point>
      <point x="649" y="675" type="line"></point>
      <point x="649" y="202" type="line"></point>
    </contour>
  </outline>
</glyph>
<glyph name="comma" format="1">
  <advance width="617"></advance>
  <unicode hex="002C"></unicode>
  <outline>
    <contour>
      <point x="145" y="-310" type="line"></point>
      <point x="252" y="207" type="line"></point>
      <point x="439" y="207" type="line"></point>
      <point x="276" y="-310" type="line"></point>
    </contour>
  </outline>
</glyph>
<glyph name="hyphen" format="1">
  <advance width="1026"></advance>
  <unicode hex="002D"></unicode>
  <outline>
    <contour>
      <point x="109" y="637" type="line"></point>
      <point x="109" y="780" type="line"></point>
      <point x="908" y="780" type="line"></point>
      <point x="908" y="637" type="line"></point>
    </contour>
  </outline>
</glyph>
<glyph name="period" format="1">
  <advance width="588"></advance>
  <unicode hex="002E"></unicode>
  <outline>
    <contour>
      <point x="294" y="-16" type="curve" smooth="yes"></point>
      <point x="225" y="-16"></point>
      <point x="187" y="33"></point>
      <point x="187" y="90" type="curve" smooth="yes"></point>
      <point x="187" y="156"></point>
      <point x="241" y="195"></point>
      <point x="295" y="195" type="curve" smooth="yes"></point>
      <point x="364" y="195"></point>
      <point x="402" y="146"></point>
      <point x="402" y="89" type="curve" smooth="yes"></point>
      <point x="402" y="23"></point>
      <point x="348" y="-16"></point>
    </contour>
  </outline>
</glyph>
<glyph name="slash" format="1">
  <advance width="935"></advance>
  <unicode hex="002F"></unicode>
  <outline>
    <contour>
      <point x="112" y="0" type="line"></point>
      <point x="737" y="1560" type="line"></point>
      <point x="904" y="1560" type="line"></point>
      <point x="275" y="0" type="line"></point>
    </contour>
  </outline>
</glyph>
<glyph name="zero" format="1">
  <advance width="1294"></advance>
  <unicode hex="0030"></unicode>
  <outline>
    <contour>
      <point x="636" y="-24" type="curve" smooth="yes"></point>
      <point x="261" y="-24"></point>
      <point x="142" y="355"></point>
      <point x="142" y="786" type="curve" smooth="yes"></point>
      <point x="142" y="1199"></point>
      <point x="264" y="1586"></point>
      <point x="636" y="1586" type="curve" smooth="yes"></point>
      <point x="1028" y="1586"></point>
      <point x="1134" y="1213"></point>
      <point x="1134" y="786" type="curve" smooth="yes"></point>
      <point x="1134" y="361"></point>
      <point x="1002" y="-24"></point>
    </contour>
    <contour>
      <point x="636" y="126" type="curve" smooth="yes"></point>
      <point x="887" y="126"></point>
      <point x="950" y="516"></point>
      <point x="950" y="786" type="curve" smooth="yes"></point>
      <point x="950" y="1072"></point>
      <point x="908" y="1436"></point>
      <point x="636" y="1436" type="curve" smooth="yes"></point>
      <point x="381" y="1436"></point>
      <point x="326" y="1060"></point>
      <point x="326" y="786" type="curve" smooth="yes"></point>
      <point x="326" y="499"></point>
      <point x="363" y="126"></point>
    </contour>
  </outline>
</glyph>
<glyph name="one" format="1">
  <advance width="663"></advance>
  <unicode hex="0031"></unicode>
  <outline>
    <contour>
      <point x="417" y="0" type="line"></point>
      <point x="245" y="0" type="line"></point>
      <point x="245" y="1560" type="line"></point>
      <point x="417" y="1560" type="line"></point>
    </contour>
  </outline>
</glyph>
<glyph name="two" format="1">
  <advance width="1086"></advance>
  <unicode hex="0032"></unicode>
  <outline>
    <contour>
      <point x="786" y="1157" type="curve" smooth="yes"></point>
      <point x="786" y="1324"></point>
      <point x="685" y="1436"></point>
      <point x="518" y="1436" type="curve" smooth="yes"></point>
      <point x="321" y="1436"></point>
      <point x="187" y="1240"></point>
      <point x="186" y="1241" type="curve" smooth="yes"></point>
      <point x="88" y="1369" type="line"></point>
      <point x="88" y="1369"></point>
      <point x="257" y="1586"></point>
      <point x="515" y="1586" type="curve" smooth="yes"></point>
      <point x="782" y="1586"></point>
      <point x="956" y="1422"></point>
      <point x="956" y="1152" type="curve" smooth="yes"></point>
      <point x="956" y="948"></point>
      <point x="874" y="815"></point>
      <point x="708" y="605" type="curve" smooth="yes"></point>
      <point x="345" y="144" type="line"></point>
      <point x="957" y="144" type="line"></point>
      <point x="957" y="0" type="line"></point>
      <point x="134" y="0" type="line"></point>
      <point x="134" y="135" type="line"></point>
      <point x="598" y="725" type="line" smooth="yes"></point>
      <point x="737" y="902"></point>
      <point x="786" y="1022"></point>
    </contour>
  </outline>
</glyph>
<glyph name="three" format="1">
  <advance width="1146"></advance>
  <unicode hex="0033"></unicode>
  <outline>
    <contour>
      <point x="567" y="-24" type="curve" smooth="yes"></point>
      <point x="424" y="-24"></point>
      <point x="259" y="16"></point>
      <point x="144" y="85" type="curve"></point>
      <point x="197" y="225" type="line"></point>
      <point x="322" y="159"></point>
      <point x="447" y="125"></point>
      <point x="555" y="125" type="curve" smooth="yes"></point>
      <point x="753" y="125"></point>
      <point x="859" y="245"></point>
      <point x="859" y="430" type="curve" smooth="yes"></point>
      <point x="859" y="446" type="line"></point>
      <point x="853" y="639"></point>
      <point x="714" y="736"></point>
      <point x="475" y="736" type="curve" smooth="yes"></point>
      <point x="397" y="736" type="line"></point>
      <point x="397" y="884" type="line"></point>
      <point x="461" y="884" type="line" smooth="yes"></point>
      <point x="687" y="884"></point>
      <point x="810" y="990"></point>
      <point x="810" y="1179" type="curve" smooth="yes"></point>
      <point x="810" y="1345"></point>
      <point x="695" y="1435"></point>
      <point x="539" y="1435" type="curve" smooth="yes"></point>
      <point x="396" y="1435"></point>
      <point x="289" y="1391"></point>
      <point x="190" y="1291" type="curve"></point>
      <point x="94" y="1400" type="line"></point>
      <point x="197" y="1523"></point>
      <point x="373" y="1586"></point>
      <point x="535" y="1586" type="curve" smooth="yes"></point>
      <point x="767" y="1586"></point>
      <point x="975" y="1446"></point>
      <point x="975" y="1185" type="curve" smooth="yes"></point>
      <point x="975" y="1022"></point>
      <point x="889" y="867"></point>
      <point x="727" y="819" type="curve"></point>
      <point x="917" y="780"></point>
      <point x="1029" y="623"></point>
      <point x="1029" y="434" type="curve" smooth="yes"></point>
      <point x="1029" y="128"></point>
      <point x="816" y="-24"></point>
    </contour>
  </outline>
</glyph>
<glyph name="four" format="1">
  <advance width="1116"></advance>
  <unicode hex="0034"></unicode>
  <outline>
    <contour>
      <point x="862" y="868" type="line"></point>
      <point x="862" y="509" type="line"></point>
      <point x="1091" y="509" type="line"></point>
      <point x="1091" y="370" type="line"></point>
      <point x="863" y="370" type="line"></point>
      <point x="863" y="0" type="line"></point>
      <point x="720" y="0" type="line"></point>
      <point x="720" y="370" type="line"></point>
      <point x="94" y="370" type="line"></point>
      <point x="94" y="499" type="line"></point>
      <point x="529" y="1560" type="line"></point>
      <point x="697" y="1560" type="line"></point>
      <point x="283" y="509" type="line"></point>
      <point x="720" y="509" type="line"></point>
      <point x="720" y="868" type="line"></point>
    </contour>
  </outline>
</glyph>
<glyph name="five" format="1">
  <advance width="1176"></advance>
  <unicode hex="0035"></unicode>
  <outline>
    <contour>
      <point x="561" y="-24" type="curve" smooth="yes"></point>
      <point x="400" y="-24"></point>
      <point x="225" y="46"></point>
      <point x="106" y="179" type="curve"></point>
      <point x="197" y="295" type="line"></point>
      <point x="305" y="171"></point>
      <point x="440" y="123"></point>
      <point x="559" y="123" type="curve" smooth="yes"></point>
      <point x="761" y="123"></point>
      <point x="878" y="271"></point>
      <point x="878" y="472" type="curve" smooth="yes"></point>
      <point x="878" y="637"></point>
      <point x="784" y="796"></point>
      <point x="608" y="796" type="curve" smooth="yes"></point>
      <point x="484" y="796"></point>
      <point x="386" y="734"></point>
      <point x="345" y="672" type="curve"></point>
      <point x="188" y="714" type="line"></point>
      <point x="203" y="1560" type="line"></point>
      <point x="934" y="1560" type="line"></point>
      <point x="934" y="1410" type="line"></point>
      <point x="356" y="1410" type="line"></point>
      <point x="335" y="830" type="line"></point>
      <point x="397" y="896"></point>
      <point x="521" y="944"></point>
      <point x="616" y="944" type="curve" smooth="yes"></point>
      <point x="866" y="944"></point>
      <point x="1040" y="740"></point>
      <point x="1040" y="470" type="curve" smooth="yes"></point>
      <point x="1040" y="198"></point>
      <point x="869" y="-24"></point>
    </contour>
  </outline>
</glyph>
<glyph name="six" format="1">
  <advance width="1237"></advance>
  <unicode hex="0036"></unicode>
  <outline>
    <contour>
      <point x="632" y="126" type="curve" smooth="yes"></point>
      <point x="809" y="126"></point>
      <point x="935" y="254"></point>
      <point x="935" y="459" type="curve" smooth="yes"></point>
      <point x="935" y="652"></point>
      <point x="846" y="802"></point>
      <point x="641" y="802" type="curve" smooth="yes"></point>
      <point x="456" y="802"></point>
      <point x="306" y="683"></point>
      <point x="306" y="492" type="curve" smooth="yes"></point>
      <point x="306" y="263"></point>
      <point x="416" y="126"></point>
    </contour>
    <contour>
      <point x="637" y="-24" type="curve" smooth="yes"></point>
      <point x="264" y="-24"></point>
      <point x="136" y="249"></point>
      <point x="136" y="585" type="curve" smooth="yes"></point>
      <point x="136" y="960"></point>
      <point x="304" y="1451"></point>
      <point x="866" y="1587" type="curve"></point>
      <point x="902" y="1452" type="line"></point>
      <point x="525" y="1352"></point>
      <point x="359" y="1082"></point>
      <point x="319" y="781" type="curve"></point>
      <point x="384" y="903"></point>
      <point x="555" y="946"></point>
      <point x="661" y="946" type="curve" smooth="yes"></point>
      <point x="925" y="946"></point>
      <point x="1102" y="754"></point>
      <point x="1102" y="464" type="curve" smooth="yes"></point>
      <point x="1102" y="175"></point>
      <point x="906" y="-24"></point>
    </contour>
  </outline>
</glyph>
<glyph name="seven" format="1">
  <advance width="970"></advance>
  <unicode hex="0037"></unicode>
  <outline>
    <contour>
      <point x="209" y="0" type="line"></point>
      <point x="733" y="1415" type="line"></point>
      <point x="15" y="1415" type="line"></point>
      <point x="15" y="1560" type="line"></point>
      <point x="933" y="1560" type="line"></point>
      <point x="933" y="1469" type="line"></point>
      <point x="395" y="0" type="line"></point>
    </contour>
  </outline>
</glyph>
<glyph name="eight" format="1">
  <advance width="1176"></advance>
  <unicode hex="0038"></unicode>
  <outline>
    <contour>
      <point x="585" y="889" type="curve"></point>
      <point x="736" y="918"></point>
      <point x="860" y="1010"></point>
      <point x="860" y="1199" type="curve" smooth="yes"></point>
      <point x="860" y="1355"></point>
      <point x="735" y="1454"></point>
      <point x="585" y="1454" type="curve" smooth="yes"></point>
      <point x="424" y="1454"></point>
      <point x="312" y="1342"></point>
      <point x="312" y="1199" type="curve" smooth="yes"></point>
      <point x="312" y="1010"></point>
      <point x="434" y="918"></point>
    </contour>
    <contour>
      <point x="585" y="114" type="curve" smooth="yes"></point>
      <point x="767" y="114"></point>
      <point x="883" y="232"></point>
      <point x="883" y="403" type="curve" smooth="yes"></point>
      <point x="883" y="620"></point>
      <point x="736" y="730"></point>
      <point x="585" y="762" type="curve"></point>
      <point x="422" y="728"></point>
      <point x="289" y="606"></point>
      <point x="289" y="403" type="curve" smooth="yes"></point>
      <point x="289" y="224"></point>
      <point x="412" y="114"></point>
    </contour>
    <contour>
      <point x="585" y="-24" type="curve" smooth="yes"></point>
      <point x="309" y="-24"></point>
      <point x="112" y="152"></point>
      <point x="112" y="396" type="curve" smooth="yes"></point>
      <point x="112" y="609"></point>
      <point x="241" y="770"></point>
      <point x="414" y="823" type="curve"></point>
      <point x="262" y="872"></point>
      <point x="147" y="1004"></point>
      <point x="147" y="1197" type="curve" smooth="yes"></point>
      <point x="147" y="1457"></point>
      <point x="359" y="1586"></point>
      <point x="585" y="1586" type="curve" smooth="yes"></point>
      <point x="844" y="1586"></point>
      <point x="1025" y="1421"></point>
      <point x="1025" y="1197" type="curve" smooth="yes"></point>
      <point x="1025" y="1004"></point>
      <point x="901" y="872"></point>
      <point x="749" y="823" type="curve"></point>
      <point x="922" y="770"></point>
      <point x="1060" y="609"></point>
      <point x="1060" y="396" type="curve" smooth="yes"></point>
      <point x="1060" y="120"></point>
      <point x="850" y="-24"></point>
    </contour>
  </outline>
</glyph>
<glyph name="nine" format="1">
  <advance width="1146"></advance>
  <unicode hex="0039"></unicode>
  <outline>
    <contour>
      <point x="771" y="1412" type="line"></point>
      <point x="757" y="1421"></point>
      <point x="702" y="1443"></point>
      <point x="619" y="1443" type="curve" smooth="yes"></point>
      <point x="404" y="1443"></point>
      <point x="304" y="1262"></point>
      <point x="304" y="1097" type="curve" smooth="yes"></point>
      <point x="304" y="957"></point>
      <point x="380" y="864"></point>
      <point x="493" y="864" type="curve" smooth="yes"></point>
      <point x="620" y="864"></point>
      <point x="771" y="993"></point>
      <point x="771" y="1279" type="curve" smooth="yes"></point>
    </contour>
    <contour>
      <point x="951" y="1489" type="curve"></point>
      <point x="951" y="0" type="line"></point>
      <point x="777" y="0" type="line"></point>
      <point x="777" y="874" type="line"></point>
      <point x="688" y="774"></point>
      <point x="582" y="715"></point>
      <point x="477" y="715" type="curve" smooth="yes"></point>
      <point x="283" y="715"></point>
      <point x="130" y="867"></point>
      <point x="130" y="1089" type="curve" smooth="yes"></point>
      <point x="130" y="1326"></point>
      <point x="288" y="1586"></point>
      <point x="600" y="1586" type="curve" smooth="yes"></point>
      <point x="753" y="1586"></point>
      <point x="874" y="1547"></point>
    </contour>
  </outline>
</glyph>
<glyph name="colon" format="1">
  <advance width="617"></advance>
  <unicode hex="003A"></unicode>
  <outline>
    <contour>
      <point x="307" y="1078" type="curve" smooth="yes"></point>
      <point x="395" y="1078"></point>
      <point x="439" y="1017"></point>
      <point x="439" y="955" type="curve" smooth="yes"></point>
      <point x="439" y="893"></point>
      <point x="395" y="832"></point>
      <point x="307" y="832" type="curve" smooth="yes"></point>
      <point x="219" y="832"></point>
      <point x="175" y="893"></point>
      <point x="175" y="955" type="curve" smooth="yes"></point>
      <point x="175" y="1017"></point>
      <point x="219" y="1078"></point>
    </contour>
    <contour>
      <point x="307" y="294" type="curve" smooth="yes"></point>
      <point x="395" y="294"></point>
      <point x="439" y="233"></point>
      <point x="439" y="171" type="curve" smooth="yes"></point>
      <point x="439" y="109"></point>
      <point x="395" y="48"></point>
      <point x="307" y="48" type="curve" smooth="yes"></point>
      <point x="219" y="48"></point>
      <point x="175" y="109"></point>
      <point x="175" y="171" type="curve" smooth="yes"></point>
      <point x="175" y="233"></point>
      <point x="219" y="294"></point>
    </contour>
  </outline>
</glyph>
<glyph name="semicolon" format="1">
  <advance width="735"></advance>
  <unicode hex="003B"></unicode>
  <outline>
    <contour>
      <point x="190" y="-256" type="line"></point>
      <point x="296" y="207" type="line"></point>
      <point x="484" y="207" type="line"></point>
      <point x="321" y="-256" type="line"></point>
    </contour>
    <contour>
      <point x="379" y="1078" type="curve" smooth="yes"></point>
      <point x="467" y="1078"></point>
      <point x="511" y="1017"></point>
      <point x="511" y="955" type="curve" smooth="yes"></point>
      <point x="511" y="893"></point>
      <point x="467" y="832"></point>
      <point x="379" y="832" type="curve" smooth="yes"></point>
      <point x="291" y="832"></point>
      <point x="247" y="893"></point>
      <point x="247" y="955" type="curve" smooth="yes"></point>
      <point x="247" y="1017"></point>
      <point x="291" y="1078"></point>
    </contour>
  </outline>
</glyph>
<glyph name="less" format="1">
  <advance width="1116"></advance>
  <unicode hex="003C"></unicode>
  <outline>
    <contour>
      <point x="1019" y="48" type="line"></point>
      <point x="37" y="508" type="line"></point>
      <point x="37" y="595" type="line"></point>
      <point x="1023" y="1067" type="line"></point>
      <point x="1023" y="914" type="line"></point>
      <point x="256" y="552" type="line"></point>
      <point x="1019" y="200" type="line"></point>
    </contour>
  </outline>
</glyph>
<glyph name="equal" format="1">
  <advance width="1056"></advance>
  <unicode hex="003D"></unicode>
  <outline>
    <contour>
      <point x="91" y="809" type="line"></point>
      <point x="91" y="947" type="line"></point>
      <point x="964" y="947" type="line"></point>
      <point x="964" y="809" type="line"></point>
    </contour>
    <contour>
      <point x="92" y="403" type="line"></point>
      <point x="92" y="540" type="line"></point>
      <point x="965" y="540" type="line"></point>
      <point x="965" y="403" type="line"></point>
    </contour>
  </outline>
</glyph>
<glyph name="greater" format="1">
  <advance width="1116"></advance>
  <unicode hex="003E"></unicode>
  <outline>
    <contour>
      <point x="73" y="58" type="line"></point>
      <point x="73" y="212" type="line"></point>
      <point x="841" y="555" type="line"></point>
      <point x="78" y="926" type="line"></point>
      <point x="78" y="1078" type="line"></point>
      <point x="1062" y="594" type="line"></point>
      <point x="1062" y="505" type="line"></point>
    </contour>
  </outline>
</glyph>
<glyph name="question" format="1">
  <advance width="905"></advance>
  <unicode hex="003F"></unicode>
  <outline>
    <contour>
      <point x="324" y="0" type="curve" smooth="yes"></point>
      <point x="255" y="0"></point>
      <point x="217" y="49"></point>
      <point x="217" y="106" type="curve" smooth="yes"></point>
      <point x="217" y="172"></point>
      <point x="271" y="211"></point>
      <point x="325" y="211" type="curve" smooth="yes"></point>
      <point x="393" y="211"></point>
      <point x="430" y="162"></point>
      <point x="430" y="105" type="curve" smooth="yes"></point>
      <point x="430" y="39"></point>
      <point x="378" y="0"></point>
    </contour>
    <contour>
      <point x="622" y="1228" type="curve" smooth="yes"></point>
      <point x="622" y="1379"></point>
      <point x="504" y="1436"></point>
      <point x="366" y="1436" type="curve" smooth="yes"></point>
      <point x="266" y="1436"></point>
      <point x="152" y="1404"></point>
      <point x="82" y="1365" type="curve"></point>
      <point x="82" y="1516" type="line"></point>
      <point x="162" y="1555"></point>
      <point x="265" y="1586"></point>
      <point x="371" y="1586" type="curve" smooth="yes"></point>
      <point x="648" y="1586"></point>
      <point x="791" y="1441"></point>
      <point x="791" y="1236" type="curve" smooth="yes"></point>
      <point x="791" y="863"></point>
      <point x="380" y="711"></point>
      <point x="380" y="401" type="curve"></point>
      <point x="255" y="401" type="line"></point>
      <point x="255" y="763"></point>
      <point x="622" y="892"></point>
    </contour>
  </outline>
</glyph>
<glyph name="at" format="1">
  <advance width="1750"></advance>
  <unicode hex="0040"></unicode>
  <outline>
    <contour>
      <point x="808" y="410" type="curve" smooth="yes"></point>
      <point x="988" y="410"></point>
      <point x="1117" y="667"></point>
      <point x="1117" y="866" type="curve" smooth="yes"></point>
      <point x="1117" y="981"></point>
      <point x="1063" y="1088"></point>
      <point x="952" y="1088" type="curve" smooth="yes"></point>
      <point x="769" y="1088"></point>
      <point x="621" y="878"></point>
      <point x="621" y="635" type="curve" smooth="yes"></point>
      <point x="621" y="488"></point>
      <point x="697" y="410"></point>
    </contour>
    <contour>
      <point x="922" y="-61" type="curve" smooth="yes"></point>
      <point x="464" y="-61"></point>
      <point x="106" y="264"></point>
      <point x="106" y="727" type="curve" smooth="yes"></point>
      <point x="106" y="1191"></point>
      <point x="476" y="1524"></point>
      <point x="926" y="1524" type="curve" smooth="yes"></point>
      <point x="1340" y="1524"></point>
      <point x="1689" y="1253"></point>
      <point x="1689" y="839" type="curve" smooth="yes"></point>
      <point x="1689" y="525"></point>
      <point x="1488" y="310"></point>
      <point x="1267" y="310" type="curve" smooth="yes"></point>
      <point x="1149" y="310"></point>
      <point x="1089" y="399"></point>
      <point x="1089" y="525" type="curve"></point>
      <point x="1033" y="392"></point>
      <point x="893" y="302"></point>
      <point x="782" y="302" type="curve" smooth="yes"></point>
      <point x="563" y="302"></point>
      <point x="482" y="493"></point>
      <point x="482" y="655" type="curve" smooth="yes"></point>
      <point x="482" y="941"></point>
      <point x="707" y="1183"></point>
      <point x="949" y="1183" type="curve" smooth="yes"></point>
      <point x="1051" y="1183"></point>
      <point x="1132" y="1136"></point>
      <point x="1169" y="1067" type="curve"></point>
      <point x="1187" y="1152" type="line"></point>
      <point x="1327" y="1152" type="line"></point>
      <point x="1241" y="756"></point>
      <point x="1188" y="541"></point>
      <point x="1188" y="471" type="curve" smooth="yes"></point>
      <point x="1188" y="415"></point>
      <point x="1209" y="385"></point>
      <point x="1267" y="385" type="curve" smooth="yes"></point>
      <point x="1438" y="385"></point>
      <point x="1577" y="573"></point>
      <point x="1577" y="842" type="curve" smooth="yes"></point>
      <point x="1577" y="1207"></point>
      <point x="1267" y="1430"></point>
      <point x="924" y="1430" type="curve" smooth="yes"></point>
      <point x="529" y="1430"></point>
      <point x="233" y="1128"></point>
      <point x="233" y="725" type="curve" smooth="yes"></point>
      <point x="233" y="309"></point>
      <point x="521" y="40"></point>
      <point x="927" y="40" type="curve" smooth="yes"></point>
      <point x="1188" y="40"></point>
      <point x="1321" y="124"></point>
      <point x="1440" y="230" type="curve"></point>
      <point x="1497" y="170" type="line"></point>
      <point x="1374" y="31"></point>
      <point x="1174" y="-61"></point>
    </contour>
  </outline>
</glyph>
<glyph name="A" format="1">
  <advance width="1382"></advance>
  <unicode hex="0041"></unicode>
  <outline>
    <contour>
      <point x="422" y="615" type="curve"></point>
      <point x="943" y="615" type="line"></point>
      <point x="856" y="871"></point>
      <point x="768" y="1125"></point>
      <point x="685" y="1385" type="curve"></point>
      <point x="596" y="1130"></point>
      <point x="509" y="872"></point>
    </contour>
    <contour>
      <point x="27" y="0" type="line"></point>
      <point x="596" y="1560" type="line"></point>
      <point x="774" y="1560" type="line"></point>
      <point x="1344" y="0" type="line"></point>
      <point x="1163" y="0" type="line"></point>
      <point x="995" y="479" type="line"></point>
      <point x="370" y="479" type="line"></point>
      <point x="203" y="0" type="line"></point>
    </contour>
  </outline>
</glyph>
<glyph name="B" format="1">
  <advance width="1294"></advance>
  <unicode hex="0042"></unicode>
  <outline>
    <contour>
      <point x="340" y="884" type="line"></point>
      <point x="530" y="884" type="line" smooth="yes"></point>
      <point x="808" y="884"></point>
      <point x="939" y="962"></point>
      <point x="939" y="1154" type="curve" smooth="yes"></point>
      <point x="939" y="1339"></point>
      <point x="851" y="1422"></point>
      <point x="564" y="1422" type="curve" smooth="yes"></point>
      <point x="340" y="1422" type="line"></point>
    </contour>
    <contour>
      <point x="340" y="138" type="line"></point>
      <point x="605" y="138" type="line" smooth="yes"></point>
      <point x="869" y="138"></point>
      <point x="1004" y="229"></point>
      <point x="1004" y="435" type="curve" smooth="yes"></point>
      <point x="1004" y="645"></point>
      <point x="865" y="733"></point>
      <point x="560" y="733" type="curve" smooth="yes"></point>
      <point x="340" y="733" type="line"></point>
    </contour>
    <contour>
      <point x="166" y="0" type="line"></point>
      <point x="166" y="1560" type="line"></point>
      <point x="564" y="1560" type="line" smooth="yes"></point>
      <point x="934" y="1560"></point>
      <point x="1118" y="1454"></point>
      <point x="1118" y="1184" type="curve" smooth="yes"></point>
      <point x="1118" y="983"></point>
      <point x="1027" y="882"></point>
      <point x="865" y="824" type="curve"></point>
      <point x="1066" y="782"></point>
      <point x="1186" y="669"></point>
      <point x="1186" y="432" type="curve" smooth="yes"></point>
      <point x="1186" y="122"></point>
      <point x="953" y="0"></point>
      <point x="611" y="0" type="curve" smooth="yes"></point>
    </contour>
  </outline>
</glyph>
<glyph name="C" format="1">
  <advance width="1382"></advance>
  <unicode hex="0043"></unicode>
  <outline>
    <contour>
      <point x="1281" y="100" type="curve"></point>
      <point x="1227" y="233" type="line"></point>
      <point x="1112" y="164"></point>
      <point x="999" y="126"></point>
      <point x="857" y="126" type="curve" smooth="yes"></point>
      <point x="497" y="126"></point>
      <point x="314" y="447"></point>
      <point x="313" y="782" type="curve"></point>
      <point x="314" y="1109"></point>
      <point x="497" y="1436"></point>
      <point x="857" y="1436" type="curve" smooth="yes"></point>
      <point x="999" y="1436"></point>
      <point x="1112" y="1398"></point>
      <point x="1227" y="1329" type="curve"></point>
      <point x="1281" y="1462" type="line"></point>
      <point x="1165" y="1533"></point>
      <point x="1043" y="1586"></point>
      <point x="849" y="1586" type="curve" smooth="yes"></point>
      <point x="374" y="1586"></point>
      <point x="130" y="1184"></point>
      <point x="130" y="781" type="curve"></point>
      <point x="130" y="373"></point>
      <point x="374" y="-24"></point>
      <point x="849" y="-24" type="curve" smooth="yes"></point>
      <point x="1043" y="-24"></point>
      <point x="1165" y="29"></point>
    </contour>
  </outline>
</glyph>
<glyph name="D" format="1">
  <advance width="1500"></advance>
  <unicode hex="0044"></unicode>
  <outline>
    <contour>
      <point x="172" y="0" type="line"></point>
      <point x="172" y="1560" type="line"></point>
      <point x="497" y="1560" type="line" smooth="yes"></point>
      <point x="1023" y="1560"></point>
      <point x="1374" y="1327"></point>
      <point x="1374" y="778" type="curve" smooth="yes"></point>
      <point x="1374" y="295"></point>
      <point x="1050" y="0"></point>
      <point x="584" y="0" type="curve" smooth="yes"></point>
    </contour>
    <contour>
      <point x="346" y="138" type="line"></point>
      <point x="595" y="138" type="line" smooth="yes"></point>
      <point x="965" y="138"></point>
      <point x="1192" y="388"></point>
      <point x="1192" y="775" type="curve" smooth="yes"></point>
      <point x="1192" y="1232"></point>
      <point x="933" y="1422"></point>
      <point x="501" y="1422" type="curve" smooth="yes"></point>
      <point x="346" y="1422" type="line"></point>
    </contour>
  </outline>
</glyph>
<glyph name="E" format="1">
  <advance width="1176"></advance>
  <unicode hex="0045"></unicode>
  <outline>
    <contour>
      <point x="173" y="0" type="line"></point>
      <point x="173" y="1560" type="line"></point>
      <point x="1020" y="1560" type="line"></point>
      <point x="1020" y="1422" type="line"></point>
      <point x="347" y="1422" type="line"></point>
      <point x="347" y="870" type="line"></point>
      <point x="982" y="870" type="line"></point>
      <point x="982" y="732" type="line"></point>
      <point x="347" y="732" type="line"></point>
      <point x="347" y="138" type="line"></point>
      <point x="1070" y="138" type="line"></point>
      <point x="1070" y="0" type="line"></point>
    </contour>
  </outline>
</glyph>
<glyph name="F" format="1">
  <advance width="1146"></advance>
  <unicode hex="0046"></unicode>
  <outline>
    <contour>
      <point x="179" y="0" type="line"></point>
      <point x="179" y="1560" type="line"></point>
      <point x="1005" y="1560" type="line"></point>
      <point x="1005" y="1422" type="line"></point>
      <point x="353" y="1422" type="line"></point>
      <point x="353" y="925" type="line"></point>
      <point x="971" y="925" type="line"></point>
      <point x="971" y="777" type="line"></point>
      <point x="353" y="777" type="line"></point>
      <point x="353" y="0" type="line"></point>
    </contour>
  </outline>
</glyph>
<glyph name="G" format="1">
  <advance width="1478"></advance>
  <unicode hex="0047"></unicode>
  <outline>
    <contour>
      <point x="130" y="752" type="curve" smooth="yes"></point>
      <point x="130" y="1298"></point>
      <point x="459" y="1587"></point>
      <point x="851" y="1587" type="curve" smooth="yes"></point>
      <point x="996" y="1587"></point>
      <point x="1151" y="1547"></point>
      <point x="1300" y="1466" type="curve"></point>
      <point x="1232" y="1327" type="line"></point>
      <point x="1103" y="1395"></point>
      <point x="977" y="1436"></point>
      <point x="862" y="1436" type="curve" smooth="yes"></point>
      <point x="548" y="1436"></point>
      <point x="313" y="1187"></point>
      <point x="313" y="766" type="curve" smooth="yes"></point>
      <point x="313" y="370"></point>
      <point x="498" y="126"></point>
      <point x="854" y="126" type="curve" smooth="yes"></point>
      <point x="970" y="126"></point>
      <point x="1082" y="139"></point>
      <point x="1168" y="178" type="curve"></point>
      <point x="1168" y="653" type="line"></point>
      <point x="756" y="653" type="line"></point>
      <point x="756" y="812" type="line"></point>
      <point x="1331" y="812" type="line"></point>
      <point x="1331" y="88" type="line"></point>
      <point x="1186" y="15"></point>
      <point x="1032" y="-24"></point>
      <point x="841" y="-24" type="curve" smooth="yes"></point>
      <point x="395" y="-24"></point>
      <point x="130" y="258"></point>
    </contour>
  </outline>
</glyph>
<glyph name="H" format="1">
  <advance width="1471"></advance>
  <unicode hex="0048"></unicode>
  <outline>
    <contour>
      <point x="172" y="0" type="line"></point>
      <point x="172" y="1560" type="line"></point>
      <point x="346" y="1560" type="line"></point>
      <point x="346" y="889" type="line"></point>
      <point x="1112" y="889" type="line"></point>
      <point x="1112" y="1560" type="line"></point>
      <point x="1286" y="1560" type="line"></point>
      <point x="1286" y="0" type="line"></point>
      <point x="1112" y="0" type="line"></point>
      <point x="1112" y="741" type="line"></point>
      <point x="346" y="741" type="line"></point>
      <point x="346" y="0" type="line"></point>
    </contour>
  </outline>
</glyph>
<glyph name="I" format="1">
  <advance width="965"></advance>
  <unicode hex="0049"></unicode>
  <outline>
    <contour>
      <point x="775" y="0" type="line"></point>
      <point x="185" y="0" type="line"></point>
      <point x="185" y="124" type="line"></point>
      <point x="393" y="124" type="line"></point>
      <point x="393" y="1436" type="line"></point>
      <point x="185" y="1436" type="line"></point>
      <point x="185" y="1560" type="line"></point>
      <point x="775" y="1560" type="line"></point>
      <point x="775" y="1436" type="line"></point>
      <point x="567" y="1436" type="line"></point>
      <point x="567" y="124" type="line"></point>
      <point x="775" y="124" type="line"></point>
    </contour>
  </outline>
</glyph>
<glyph name="J" format="1">
  <advance width="1056"></advance>
  <unicode hex="004A"></unicode>
  <outline>
    <contour>
      <point x="68" y="130" type="curve"></point>
      <point x="155" y="248" type="line"></point>
      <point x="223" y="166"></point>
      <point x="317" y="126"></point>
      <point x="402" y="126" type="curve" smooth="yes"></point>
      <point x="563" y="126"></point>
      <point x="640" y="209"></point>
      <point x="640" y="467" type="curve" smooth="yes"></point>
      <point x="640" y="1436" type="line"></point>
      <point x="235" y="1436" type="line"></point>
      <point x="235" y="1560" type="line"></point>
      <point x="1078" y="1560" type="line"></point>
      <point x="1078" y="1436" type="line"></point>
      <point x="807" y="1436" type="line"></point>
      <point x="807" y="434" type="line" smooth="yes"></point>
      <point x="807" y="123"></point>
      <point x="663" y="-24"></point>
      <point x="412" y="-24" type="curve" smooth="yes"></point>
      <point x="289" y="-24"></point>
      <point x="153" y="24"></point>
    </contour>
  </outline>
</glyph>
<glyph name="K" format="1">
  <advance width="1265"></advance>
  <unicode hex="004B"></unicode>
  <outline>
    <contour>
      <point x="166" y="0" type="line"></point>
      <point x="166" y="1560" type="line"></point>
      <point x="340" y="1560" type="line"></point>
      <point x="340" y="850" type="line"></point>
      <point x="956" y="1560" type="line"></point>
      <point x="1167" y="1560" type="line"></point>
      <point x="516" y="818" type="line"></point>
      <point x="1207" y="0" type="line"></point>
      <point x="989" y="0" type="line"></point>
      <point x="340" y="779" type="line"></point>
      <point x="340" y="0" type="line"></point>
    </contour>
  </outline>
</glyph>
<glyph name="L" format="1">
  <advance width="1086"></advance>
  <unicode hex="004C"></unicode>
  <outline>
    <contour>
      <point x="179" y="0" type="line"></point>
      <point x="179" y="1560" type="line"></point>
      <point x="353" y="1560" type="line"></point>
      <point x="353" y="138" type="line"></point>
      <point x="1032" y="138" type="line"></point>
      <point x="1032" y="0" type="line"></point>
    </contour>
  </outline>
</glyph>
<glyph name="N" format="1">
  <advance width="1529"></advance>
  <unicode hex="004E"></unicode>
  <outline>
    <contour>
      <point x="184" y="0" type="line"></point>
      <point x="184" y="1560" type="line"></point>
      <point x="389" y="1560" type="line"></point>
      <point x="659" y="1111"></point>
      <point x="932" y="665"></point>
      <point x="1200" y="215" type="curve"></point>
      <point x="1200" y="1560" type="line"></point>
      <point x="1371" y="1560" type="line"></point>
      <point x="1371" y="0" type="line"></point>
      <point x="1164" y="0" type="line"></point>
      <point x="425" y="1217" type="line"></point>
      <point x="356" y="1341" type="line"></point>
      <point x="356" y="0" type="line"></point>
    </contour>
  </outline>
</glyph>
<glyph name="O" format="1">
  <advance width="1629"></advance>
  <unicode hex="004F"></unicode>
  <outline>
    <contour>
      <point x="815" y="126" type="curve" smooth="yes"></point>
      <point x="1102" y="126"></point>
      <point x="1328" y="353"></point>
      <point x="1328" y="782" type="curve" smooth="yes"></point>
      <point x="1328" y="1211"></point>
      <point x="1102" y="1436"></point>
      <point x="815" y="1436" type="curve" smooth="yes"></point>
      <point x="528" y="1436"></point>
      <point x="302" y="1211"></point>
      <point x="302" y="782" type="curve" smooth="yes"></point>
      <point x="302" y="353"></point>
      <point x="528" y="126"></point>
    </contour>
    <contour>
      <point x="815" y="-24" type="curve" smooth="yes"></point>
      <point x="360" y="-24"></point>
      <point x="118" y="340"></point>
      <point x="118" y="782" type="curve" smooth="yes"></point>
      <point x="118" y="1226"></point>
      <point x="360" y="1586"></point>
      <point x="815" y="1586" type="curve" smooth="yes"></point>
      <point x="1270" y="1586"></point>
      <point x="1512" y="1226"></point>
      <point x="1512" y="782" type="curve" smooth="yes"></point>
      <point x="1512" y="340"></point>
      <point x="1270" y="-24"></point>
    </contour>
  </outline>
</glyph>
<glyph name="P" format="1">
  <advance width="1265"></advance>
  <unicode hex="0050"></unicode>
  <outline>
    <contour>
      <point x="352" y="840" type="line"></point>
      <point x="620" y="840" type="line" smooth="yes"></point>
      <point x="861" y="840"></point>
      <point x="965" y="936"></point>
      <point x="965" y="1122" type="curve" smooth="yes"></point>
      <point x="965" y="1326"></point>
      <point x="879" y="1422"></point>
      <point x="600" y="1422" type="curve" smooth="yes"></point>
      <point x="352" y="1422" type="line"></point>
    </contour>
    <contour>
      <point x="178" y="0" type="line"></point>
      <point x="178" y="1560" type="line"></point>
      <point x="577" y="1560" type="line" smooth="yes"></point>
      <point x="992" y="1560"></point>
      <point x="1149" y="1420"></point>
      <point x="1149" y="1124" type="curve" smooth="yes"></point>
      <point x="1149" y="838"></point>
      <point x="971" y="691"></point>
      <point x="601" y="691" type="curve" smooth="yes"></point>
      <point x="352" y="691" type="line"></point>
      <point x="352" y="0" type="line"></point>
    </contour>
  </outline>
</glyph>
<glyph name="Q" format="1">
  <advance width="1629"></advance>
  <unicode hex="0051"></unicode>
  <outline>
    <contour>
      <point x="815" y="126" type="curve" smooth="yes"></point>
      <point x="879" y="126"></point>
      <point x="940" y="137"></point>
      <point x="996" y="159" type="curve"></point>
      <point x="859" y="402" type="line"></point>
      <point x="997" y="477" type="line"></point>
      <point x="1126" y="239" type="line"></point>
      <point x="1249" y="346"></point>
      <point x="1328" y="529"></point>
      <point x="1328" y="782" type="curve" smooth="yes"></point>
      <point x="1328" y="1211"></point>
      <point x="1102" y="1436"></point>
      <point x="815" y="1436" type="curve" smooth="yes"></point>
      <point x="528" y="1436"></point>
      <point x="302" y="1211"></point>
      <point x="302" y="782" type="curve" smooth="yes"></point>
      <point x="302" y="353"></point>
      <point x="528" y="126"></point>
    </contour>
    <contour>
      <point x="1219" y="-237" type="line"></point>
      <point x="1073" y="22" type="line"></point>
      <point x="996" y="-7"></point>
      <point x="911" y="-24"></point>
      <point x="815" y="-24" type="curve" smooth="yes"></point>
      <point x="360" y="-24"></point>
      <point x="118" y="340"></point>
      <point x="118" y="782" type="curve" smooth="yes"></point>
      <point x="118" y="1226"></point>
      <point x="360" y="1586"></point>
      <point x="815" y="1586" type="curve" smooth="yes"></point>
      <point x="1270" y="1586"></point>
      <point x="1512" y="1226"></point>
      <point x="1512" y="782" type="curve" smooth="yes"></point>
      <point x="1512" y="491"></point>
      <point x="1407" y="234"></point>
      <point x="1206" y="92" type="curve"></point>
      <point x="1347" y="-168" type="line"></point>
    </contour>
  </outline>
</glyph>
<glyph name="S" format="1">
  <advance width="1176"></advance>
  <unicode hex="0053"></unicode>
  <outline>
    <contour>
      <point x="589" y="-22" type="curve" smooth="yes"></point>
      <point x="815" y="-22"></point>
      <point x="1046" y="95"></point>
      <point x="1046" y="420" type="curve" smooth="yes"></point>
      <point x="1046" y="636"></point>
      <point x="939" y="751"></point>
      <point x="602" y="885" type="curve" smooth="yes"></point>
      <point x="353" y="984"></point>
      <point x="273" y="1034"></point>
      <point x="273" y="1180" type="curve" smooth="yes"></point>
      <point x="273" y="1356"></point>
      <point x="406" y="1436"></point>
      <point x="587" y="1436" type="curve" smooth="yes"></point>
      <point x="712" y="1436"></point>
      <point x="832" y="1373"></point>
      <point x="914" y="1310" type="curve"></point>
      <point x="980" y="1444" type="line"></point>
      <point x="874" y="1527"></point>
      <point x="744" y="1586"></point>
      <point x="571" y="1586" type="curve" smooth="yes"></point>
      <point x="315" y="1586"></point>
      <point x="100" y="1436"></point>
      <point x="100" y="1178" type="curve" smooth="yes"></point>
      <point x="100" y="946"></point>
      <point x="206" y="860"></point>
      <point x="502" y="735" type="curve" smooth="yes"></point>
      <point x="795" y="611"></point>
      <point x="884" y="561"></point>
      <point x="877" y="393" type="curve" smooth="yes"></point>
      <point x="869" y="204"></point>
      <point x="731" y="125"></point>
      <point x="590" y="125" type="curve" smooth="yes"></point>
      <point x="447" y="125"></point>
      <point x="280" y="201"></point>
      <point x="169" y="293" type="curve"></point>
      <point x="106" y="158" type="line"></point>
      <point x="219" y="62"></point>
      <point x="406" y="-22"></point>
    </contour>
  </outline>
</glyph>
<glyph name="T" format="1">
  <advance width="1294"></advance>
  <unicode hex="0054"></unicode>
  <outline>
    <contour>
      <point x="726" y="0" type="line"></point>
      <point x="726" y="1422" type="line"></point>
      <point x="275" y="1422" type="line"></point>
      <point x="275" y="1560" type="line"></point>
      <point x="1346" y="1560" type="line"></point>
      <point x="1346" y="1422" type="line"></point>
      <point x="900" y="1422" type="line"></point>
      <point x="900" y="0" type="line"></point>
    </contour>
  </outline>
</glyph>
<glyph name="U" format="1">
  <advance width="1441"></advance>
  <unicode hex="0055"></unicode>
  <outline>
    <contour>
      <point x="722" y="-24" type="curve" smooth="yes"></point>
      <point x="353" y="-24"></point>
      <point x="154" y="157"></point>
      <point x="154" y="541" type="curve" smooth="yes"></point>
      <point x="154" y="1560" type="line"></point>
      <point x="328" y="1560" type="line"></point>
      <point x="328" y="546" type="line" smooth="yes"></point>
      <point x="328" y="260"></point>
      <point x="460" y="126"></point>
      <point x="721" y="126" type="curve" smooth="yes"></point>
      <point x="963" y="126"></point>
      <point x="1094" y="279"></point>
      <point x="1094" y="539" type="curve" smooth="yes"></point>
      <point x="1094" y="1560" type="line"></point>
      <point x="1267" y="1560" type="line"></point>
      <point x="1267" y="551" type="line"></point>
      <point x="1265" y="191"></point>
      <point x="1070" y="-24"></point>
    </contour>
  </outline>
</glyph>
<glyph name="V" format="1">
  <advance width="1176"></advance>
  <unicode hex="0056"></unicode>
  <outline>
    <contour>
      <point x="492" y="0" type="line"></point>
      <point x="-56" y="1560" type="line"></point>
      <point x="126" y="1560" type="line"></point>
      <point x="538" y="335" type="line"></point>
      <point x="584" y="185" type="line"></point>
      <point x="733" y="644"></point>
      <point x="883" y="1102"></point>
      <point x="1032" y="1560" type="curve"></point>
      <point x="1216" y="1560" type="line"></point>
      <point x="678" y="0" type="line"></point>
    </contour>
  </outline>
</glyph>
<glyph name="W" format="1">
  <advance width="1810"></advance>
  <unicode hex="0057"></unicode>
  <outline>
    <contour>
      <point x="306" y="0" type="line"></point>
      <point x="-92" y="1560" type="line"></point>
      <point x="86" y="1560" type="line"></point>
      <point x="379" y="349" type="line"></point>
      <point x="417" y="178" type="line"></point>
      <point x="551" y="638"></point>
      <point x="684" y="1099"></point>
      <point x="817" y="1560" type="curve"></point>
      <point x="990" y="1560" type="line"></point>
      <point x="1121" y="1099"></point>
      <point x="1254" y="641"></point>
      <point x="1383" y="179" type="curve"></point>
      <point x="1495" y="637"></point>
      <point x="1603" y="1100"></point>
      <point x="1713" y="1560" type="curve"></point>
      <point x="1890" y="1560" type="line"></point>
      <point x="1487" y="0" type="line"></point>
      <point x="1275" y="0" type="line"></point>
      <point x="898" y="1354" type="line"></point>
      <point x="517" y="0" type="line"></point>
    </contour>
  </outline>
</glyph>
<glyph name="X" format="1">
  <advance width="1297"></advance>
  <unicode hex="0058"></unicode>
  <outline>
    <contour>
      <point x="1072" y="0" type="line"></point>
      <point x="654" y="697" type="line"></point>
      <point x="238" y="0" type="line"></point>
      <point x="34" y="0" type="line"></point>
      <point x="558" y="815" type="line"></point>
      <point x="73" y="1560" type="line"></point>
      <point x="279" y="1560" type="line"></point>
      <point x="667" y="928" type="line"></point>
      <point x="1067" y="1560" type="line"></point>
      <point x="1263" y="1560" type="line"></point>
      <point x="765" y="816" type="line"></point>
      <point x="1273" y="0" type="line"></point>
    </contour>
  </outline>
</glyph>
<glyph name="Y" format="1">
  <advance width="1056"></advance>
  <unicode hex="0059"></unicode>
  <outline>
    <contour>
      <point x="442" y="0" type="line"></point>
      <point x="442" y="652" type="line"></point>
      <point x="-74" y="1560" type="line"></point>
      <point x="113" y="1560" type="line"></point>
      <point x="529" y="797" type="line"></point>
      <point x="949" y="1560" type="line"></point>
      <point x="1139" y="1560" type="line"></point>
      <point x="616" y="655" type="line"></point>
      <point x="616" y="0" type="line"></point>
    </contour>
  </outline>
</glyph>
<glyph name="Z" format="1">
  <advance width="1176"></advance>
  <unicode hex="005A"></unicode>
  <outline>
    <contour>
      <point x="76" y="0" type="line"></point>
      <point x="76" y="92" type="line"></point>
      <point x="836" y="1422" type="line"></point>
      <point x="108" y="1422" type="line"></point>
      <point x="108" y="1560" type="line"></point>
      <point x="1068" y="1560" type="line"></point>
      <point x="1068" y="1472" type="line"></point>
      <point x="304" y="138" type="line"></point>
      <point x="1060" y="138" type="line"></point>
      <point x="1060" y="0" type="line"></point>
    </contour>
  </outline>
</glyph>
<glyph name="bracketleft" format="1">
  <advance width="754"></advance>
  <unicode hex="005B"></unicode>
  <outline>
    <contour>
      <point x="221" y="-200" type="line"></point>
      <point x="221" y="1510" type="line"></point>
      <point x="577" y="1510" type="line"></point>
      <point x="577" y="1388" type="line"></point>
      <point x="384" y="1388" type="line"></point>
      <point x="384" y="-78" type="line"></point>
      <point x="578" y="-78" type="line"></point>
      <point x="578" y="-200" type="line"></point>
    </contour>
  </outline>
</glyph>
<glyph name="backslash" format="1">
  <advance width="965"></advance>
  <unicode hex="005C"></unicode>
  <outline>
    <contour>
      <point x="675" y="0" type="line"></point>
      <point x="46" y="1456" type="line"></point>
      <point x="213" y="1456" type="line"></point>
      <point x="838" y="0" type="line"></point>
    </contour>
  </outline>
</glyph>
<glyph name="bracketright" format="1">
  <advance width="844"></advance>
  <unicode hex="005D"></unicode>
  <outline>
    <contour>
      <point x="632" y="1510" type="line"></point>
      <point x="632" y="-200" type="line"></point>
      <point x="276" y="-200" type="line"></point>
      <point x="276" y="-78" type="line"></point>
      <point x="469" y="-78" type="line"></point>
      <point x="469" y="1388" type="line"></point>
      <point x="275" y="1388" type="line"></point>
      <point x="275" y="1510" type="line"></point>
    </contour>
  </outline>
</glyph>
<glyph name="asciicircum" format="1">
  <advance width="1116"></advance>
  <unicode hex="005E"></unicode>
  <outline>
    <contour>
      <point x="37" y="550" type="line"></point>
      <point x="509" y="1432" type="line"></point>
      <point x="606" y="1432" type="line"></point>
      <point x="1085" y="550" type="line"></point>
      <point x="930" y="550" type="line"></point>
      <point x="556" y="1260" type="line"></point>
      <point x="193" y="550" type="line"></point>
    </contour>
  </outline>
</glyph>
<glyph name="underscore" format="1">
  <advance width="1146"></advance>
  <unicode hex="005F"></unicode>
  <outline>
    <contour>
      <point x="230" y="-152" type="line"></point>
      <point x="230" y="-24" type="line"></point>
      <point x="1213" y="-24" type="line"></point>
      <point x="1213" y="-152" type="line"></point>
    </contour>
  </outline>
</glyph>
<glyph name="a" format="1">
  <advance width="1146"></advance>
  <unicode hex="0061"></unicode>
  <outline>
    <contour>
      <point x="513" y="109.893" type="curve" smooth="yes"></point>
      <point x="705" y="109.893"></point>
      <point x="783" y="258.03"></point>
      <point x="783" y="453" type="curve" smooth="yes"></point>
      <point x="783" y="894" type="line"></point>
      <point x="741" y="907.425"></point>
      <point x="678" y="920.286"></point>
      <point x="604" y="920.286" type="curve" smooth="yes"></point>
      <point x="356" y="920.286"></point>
      <point x="247" y="674"></point>
      <point x="247" y="457" type="curve" smooth="yes"></point>
      <point x="247" y="271"></point>
      <point x="323" y="109.893"></point>
    </contour>
    <contour>
      <point x="504" y="-22" type="curve" smooth="yes"></point>
      <point x="215" y="-22"></point>
      <point x="73" y="208"></point>
      <point x="73" y="467" type="curve" smooth="yes"></point>
      <point x="73" y="744"></point>
      <point x="238" y="1052"></point>
      <point x="634" y="1052" type="curve" smooth="yes"></point>
      <point x="761" y="1052"></point>
      <point x="875" y="1017"></point>
      <point x="953" y="976" type="curve"></point>
      <point x="953" y="241" type="line" smooth="yes"></point>
      <point x="953" y="38"></point>
      <point x="1119" y="126"></point>
      <point x="1167" y="148" type="curve"></point>
      <point x="1189" y="33" type="line"></point>
      <point x="1121" y="-16.9073"></point>
      <point x="828" y="-100"></point>
      <point x="788" y="144" type="curve"></point>
      <point x="732" y="45"></point>
      <point x="652" y="-22"></point>
    </contour>
  </outline>
</glyph>
<glyph name="b" format="1">
  <advance width="1116"></advance>
  <unicode hex="0062"></unicode>
  <outline>
    <contour>
      <point x="522" y="114" type="curve" smooth="yes"></point>
      <point x="746" y="114"></point>
      <point x="856" y="309"></point>
      <point x="856" y="550" type="curve" smooth="yes"></point>
      <point x="856" y="793"></point>
      <point x="740" y="920"></point>
      <point x="598" y="920" type="curve" smooth="yes"></point>
      <point x="385" y="920"></point>
      <point x="291" y="728"></point>
      <point x="291" y="538" type="curve" smooth="yes"></point>
      <point x="291" y="151" type="line"></point>
      <point x="291" y="151"></point>
      <point x="374" y="114"></point>
    </contour>
    <contour>
      <point x="531" y="-22" type="curve" smooth="yes"></point>
      <point x="298" y="-22"></point>
      <point x="121" y="71"></point>
      <point x="121" y="71" type="curve"></point>
      <point x="121" y="1560" type="line"></point>
      <point x="291" y="1560" type="line"></point>
      <point x="291" y="879" type="line"></point>
      <point x="383" y="1013"></point>
      <point x="492" y="1052"></point>
      <point x="627" y="1052" type="curve" smooth="yes"></point>
      <point x="850" y="1052"></point>
      <point x="1030" y="865"></point>
      <point x="1030" y="545" type="curve" smooth="yes"></point>
      <point x="1030" y="215"></point>
      <point x="835" y="-22"></point>
    </contour>
  </outline>
</glyph>
<glyph name="d" format="1">
  <advance width="1176"></advance>
  <unicode hex="0064"></unicode>
  <outline>
    <contour>
      <point x="806" y="886" type="line"></point>
      <point x="730" y="912.908"></point>
      <point x="663" y="920"></point>
      <point x="597" y="920" type="curve" smooth="yes"></point>
      <point x="345" y="920"></point>
      <point x="247" y="724"></point>
      <point x="247" y="473" type="curve" smooth="yes"></point>
      <point x="247" y="243"></point>
      <point x="364" y="110"></point>
      <point x="525" y="110" type="curve" smooth="yes"></point>
      <point x="714" y="110"></point>
      <point x="806" y="258"></point>
      <point x="806" y="497" type="curve" smooth="yes"></point>
    </contour>
    <contour>
      <point x="812" y="133.206" type="curve"></point>
      <point x="747" y="33.6015"></point>
      <point x="668" y="-22"></point>
      <point x="519" y="-22" type="curve" smooth="yes"></point>
      <point x="285" y="-22"></point>
      <point x="73" y="159"></point>
      <point x="73" y="474" type="curve" smooth="yes"></point>
      <point x="73" y="869"></point>
      <point x="302" y="1052"></point>
      <point x="598" y="1052" type="curve" smooth="yes"></point>
      <point x="663" y="1052"></point>
      <point x="740" y="1037"></point>
      <point x="805" y="1014" type="curve"></point>
      <point x="805" y="1560" type="line"></point>
      <point x="975" y="1560" type="line"></point>
      <point x="975" y="235" type="line" smooth="yes"></point>
      <point x="975" y="139"></point>
      <point x="1019" y="110"></point>
      <point x="1070" y="110" type="curve" smooth="yes"></point>
      <point x="1113" y="110"></point>
      <point x="1161" y="131"></point>
      <point x="1191" y="148" type="curve"></point>
      <point x="1211" y="33" type="line"></point>
      <point x="1151" y="-6"></point>
      <point x="1073" y="-22"></point>
      <point x="1012" y="-22" type="curve" smooth="yes"></point>
      <point x="902" y="-22"></point>
      <point x="834" y="28.4961"></point>
    </contour>
  </outline>
</glyph>
<glyph name="e" format="1">
  <advance width="1029"></advance>
  <unicode hex="0065"></unicode>
  <outline>
    <contour>
      <point x="252" y="519" type="curve"></point>
      <point x="458" y="519"></point>
      <point x="761" y="597"></point>
      <point x="761" y="758" type="curve" smooth="yes"></point>
      <point x="761" y="852"></point>
      <point x="688" y="920"></point>
      <point x="573" y="920" type="curve" smooth="yes"></point>
      <point x="391" y="920"></point>
      <point x="253" y="761"></point>
    </contour>
    <contour>
      <point x="589" y="-22" type="curve" smooth="yes"></point>
      <point x="330" y="-22"></point>
      <point x="79" y="168"></point>
      <point x="79" y="505" type="curve" smooth="yes"></point>
      <point x="79" y="803"></point>
      <point x="255" y="1052"></point>
      <point x="585" y="1052" type="curve" smooth="yes"></point>
      <point x="792" y="1052"></point>
      <point x="924" y="922"></point>
      <point x="924" y="755" type="curve" smooth="yes"></point>
      <point x="924" y="510"></point>
      <point x="586" y="398"></point>
      <point x="263" y="398" type="curve"></point>
      <point x="308" y="166"></point>
      <point x="479" y="110"></point>
      <point x="599" y="110" type="curve" smooth="yes"></point>
      <point x="750" y="110"></point>
      <point x="856" y="179"></point>
      <point x="914" y="219" type="curve"></point>
      <point x="971" y="100" type="line"></point>
      <point x="874" y="28"></point>
      <point x="745" y="-22"></point>
    </contour>
  </outline>
</glyph>
<glyph name="f" format="1">
  <advance width="694"></advance>
  <unicode hex="0066"></unicode>
  <outline>
    <contour>
      <point x="411" y="0" type="line"></point>
      <point x="241" y="0" type="line"></point>
      <point x="241" y="920" type="line"></point>
      <point x="39" y="920" type="line"></point>
      <point x="39" y="1026" type="line"></point>
      <point x="241" y="1026" type="line"></point>
      <point x="241" y="1147" type="line" smooth="yes"></point>
      <point x="241" y="1380"></point>
      <point x="338" y="1560"></point>
      <point x="718" y="1560" type="curve"></point>
      <point x="735" y="1424" type="line"></point>
      <point x="496" y="1424"></point>
      <point x="411" y="1336"></point>
      <point x="411" y="1159" type="curve" smooth="yes"></point>
      <point x="411" y="1026" type="line"></point>
      <point x="670" y="1026" type="line"></point>
      <point x="670" y="920" type="line"></point>
      <point x="411" y="920" type="line"></point>
    </contour>
  </outline>
</glyph>
<glyph name="g" format="1">
  <advance width="1118"></advance>
  <unicode hex="0067"></unicode>
  <outline>
    <contour>
      <point x="494" y="-22" type="curve" smooth="yes"></point>
      <point x="251" y="-22"></point>
      <point x="72" y="186.521"></point>
      <point x="72" y="469.838" type="curve" smooth="yes"></point>
      <point x="72" y="846.2"></point>
      <point x="333" y="1052"></point>
      <point x="619" y="1052" type="curve" smooth="yes"></point>
      <point x="748" y="1052"></point>
      <point x="892" y="1023"></point>
      <point x="972" y="971" type="curve"></point>
      <point x="972" y="9" type="line" smooth="yes"></point>
      <point x="972" y="-309"></point>
      <point x="811" y="-566"></point>
      <point x="463" y="-566" type="curve" smooth="yes"></point>
      <point x="375" y="-566"></point>
      <point x="275" y="-549"></point>
      <point x="162" y="-513" type="curve"></point>
      <point x="180" y="-370" type="line"></point>
      <point x="285" y="-407"></point>
      <point x="376" y="-424"></point>
      <point x="455" y="-424" type="curve" smooth="yes"></point>
      <point x="687" y="-424"></point>
      <point x="802" y="-272"></point>
      <point x="802" y="-12" type="curve" smooth="yes"></point>
      <point x="802" y="136" type="line"></point>
      <point x="736" y="21"></point>
      <point x="630" y="-22"></point>
    </contour>
    <contour>
      <point x="521" y="109.893" type="curve" smooth="yes"></point>
      <point x="713" y="109.893"></point>
      <point x="802" y="258.029"></point>
      <point x="802" y="453" type="curve" smooth="yes"></point>
      <point x="802" y="894" type="line"></point>
      <point x="760" y="907.425"></point>
      <point x="686" y="920.285"></point>
      <point x="611" y="920.285" type="curve" smooth="yes"></point>
      <point x="364" y="920.285"></point>
      <point x="247" y="681.548"></point>
      <point x="247" y="465.131" type="curve" smooth="yes"></point>
      <point x="247" y="278.577"></point>
      <point x="331" y="109.893"></point>
    </contour>
  </outline>
</glyph>
<glyph name="h" format="1">
  <advance width="1176"></advance>
  <unicode hex="0068"></unicode>
  <outline>
    <contour>
      <point x="820" y="216" type="curve" smooth="yes"></point>
      <point x="820" y="607" type="line" smooth="yes"></point>
      <point x="820" y="853"></point>
      <point x="739" y="927"></point>
      <point x="594" y="920" type="curve" smooth="yes"></point>
      <point x="427" y="912"></point>
      <point x="297" y="753"></point>
      <point x="297" y="532" type="curve" smooth="yes"></point>
      <point x="297" y="0" type="line"></point>
      <point x="127" y="0" type="line"></point>
      <point x="127" y="1560" type="line"></point>
      <point x="297" y="1560" type="line"></point>
      <point x="297" y="870" type="line"></point>
      <point x="359" y="971"></point>
      <point x="477" y="1052"></point>
      <point x="640" y="1052" type="curve" smooth="yes"></point>
      <point x="826" y="1052"></point>
      <point x="990" y="946"></point>
      <point x="990" y="625" type="curve" smooth="yes"></point>
      <point x="990" y="235" type="line" smooth="yes"></point>
      <point x="990" y="158"></point>
      <point x="1019" y="120"></point>
      <point x="1080" y="120" type="curve" smooth="yes"></point>
      <point x="1106" y="120"></point>
      <point x="1135" y="124"></point>
      <point x="1169" y="132" type="curve"></point>
      <point x="1187" y="6" type="line"></point>
      <point x="1134" y="-13"></point>
      <point x="1080" y="-22"></point>
      <point x="1026" y="-22" type="curve" smooth="yes"></point>
      <point x="891" y="-22"></point>
      <point x="820" y="57"></point>
    </contour>
  </outline>
</glyph>
<glyph name="i" format="1">
  <advance width="588"></advance>
  <unicode hex="0069"></unicode>
  <outline>
    <contour>
      <point x="271" y="1236" type="line" smooth="yes"></point>
      <point x="211" y="1236"></point>
      <point x="151" y="1274"></point>
      <point x="151" y="1347" type="curve" smooth="yes"></point>
      <point x="151" y="1421"></point>
      <point x="211" y="1458"></point>
      <point x="271" y="1458" type="curve" smooth="yes"></point>
      <point x="272" y="1458" type="line" smooth="yes"></point>
      <point x="330" y="1458"></point>
      <point x="389" y="1420"></point>
      <point x="389" y="1346" type="curve" smooth="yes"></point>
      <point x="389" y="1273"></point>
      <point x="331" y="1236"></point>
      <point x="272" y="1236" type="curve" smooth="yes"></point>
    </contour>
    <contour>
      <point x="178" y="216" type="curve" smooth="yes"></point>
      <point x="178" y="1026" type="line"></point>
      <point x="348" y="1026" type="line"></point>
      <point x="348" y="235" type="line" smooth="yes"></point>
      <point x="348" y="158"></point>
      <point x="377" y="120"></point>
      <point x="438" y="120" type="curve" smooth="yes"></point>
      <point x="464" y="120"></point>
      <point x="493" y="124"></point>
      <point x="527" y="132" type="curve"></point>
      <point x="545" y="6" type="line"></point>
      <point x="492" y="-13"></point>
      <point x="438" y="-22"></point>
      <point x="384" y="-22" type="curve" smooth="yes"></point>
      <point x="249" y="-22"></point>
      <point x="178" y="57"></point>
    </contour>
  </outline>
</glyph>
<glyph name="j" format="1">
  <advance width="617"></advance>
  <unicode hex="006A"></unicode>
  <outline>
    <contour>
      <point x="341" y="1236" type="line" smooth="yes"></point>
      <point x="281" y="1236"></point>
      <point x="221" y="1274"></point>
      <point x="221" y="1347" type="curve" smooth="yes"></point>
      <point x="221" y="1421"></point>
      <point x="281" y="1458"></point>
      <point x="341" y="1458" type="curve" smooth="yes"></point>
      <point x="342" y="1458" type="line" smooth="yes"></point>
      <point x="400" y="1458"></point>
      <point x="459" y="1420"></point>
      <point x="459" y="1346" type="curve" smooth="yes"></point>
      <point x="459" y="1273"></point>
      <point x="401" y="1236"></point>
      <point x="342" y="1236" type="curve" smooth="yes"></point>
    </contour>
    <contour>
      <point x="206" y="-464" type="curve" smooth="yes"></point>
      <point x="345" y="-464"></point>
      <point x="422" y="-390"></point>
      <point x="422" y="-226" type="curve" smooth="yes"></point>
      <point x="422" y="1026" type="line"></point>
      <point x="252" y="1026" type="line"></point>
      <point x="252" y="-207" type="line" smooth="yes"></point>
      <point x="252" y="-288"></point>
      <point x="220" y="-322"></point>
      <point x="145" y="-322" type="curve" smooth="yes"></point>
      <point x="119" y="-322"></point>
      <point x="88" y="-318"></point>
      <point x="51" y="-310" type="curve"></point>
      <point x="32" y="-436" type="line"></point>
      <point x="98" y="-455"></point>
      <point x="156" y="-464"></point>
    </contour>
  </outline>
</glyph>
<glyph name="k" format="1">
  <advance width="995"></advance>
  <unicode hex="006B"></unicode>
  <outline>
    <contour>
      <point x="303" y="0" type="line"></point>
      <point x="133" y="0" type="line"></point>
      <point x="133" y="1560" type="line"></point>
      <point x="303" y="1560" type="line"></point>
      <point x="303" y="556" type="line"></point>
      <point x="744" y="1026" type="line"></point>
      <point x="951" y="1026" type="line"></point>
      <point x="459" y="513" type="line"></point>
      <point x="1013" y="0" type="line"></point>
      <point x="796" y="0" type="line"></point>
      <point x="303" y="460" type="line"></point>
    </contour>
  </outline>
</glyph>
<glyph name="l" format="1">
  <advance width="588"/>
  <unicode hex="006C"/>
  <outline>
    <contour>
      <point x="163" y="1560" type="line"/>
      <point x="333" y="1560" type="line"/>
      <point x="333" y="235" type="line" smooth="yes"/>
      <point x="333" y="174"/>
      <point x="355" y="120"/>
      <point x="451" y="120" type="curve" smooth="yes"/>
      <point x="481" y="120"/>
      <point x="522" y="125"/>
      <point x="564" y="136" type="curve"/>
      <point x="583" y="8" type="line"/>
      <point x="516" y="-14"/>
      <point x="439" y="-22"/>
      <point x="389" y="-22" type="curve" smooth="yes"/>
      <point x="250" y="-22"/>
      <point x="163" y="52"/>
      <point x="163" y="216" type="curve" smooth="yes"/>
    </contour>
  </outline>
</glyph>
<glyph name="m" format="1">
  <advance width="1735"></advance>
  <unicode hex="006D"></unicode>
  <outline>
    <contour>
      <point x="1424" y="216" type="curve" smooth="yes"></point>
      <point x="1424" y="607" type="line" smooth="yes"></point>
      <point x="1424" y="853"></point>
      <point x="1371" y="920"></point>
      <point x="1232" y="920" type="curve" smooth="yes"></point>
      <point x="1089" y="920"></point>
      <point x="952" y="792"></point>
      <point x="952" y="542" type="curve" smooth="yes"></point>
      <point x="952" y="0" type="line"></point>
      <point x="781" y="2" type="line"></point>
      <point x="781" y="607" type="line" smooth="yes"></point>
      <point x="781" y="840"></point>
      <point x="723" y="920"></point>
      <point x="598" y="920" type="curve" smooth="yes"></point>
      <point x="469" y="920"></point>
      <point x="292" y="796"></point>
      <point x="292" y="515" type="curve" smooth="yes"></point>
      <point x="292" y="0" type="line"></point>
      <point x="122" y="0" type="line"></point>
      <point x="122" y="634" type="line" smooth="yes"></point>
      <point x="122" y="833"></point>
      <point x="79" y="1026"></point>
      <point x="79" y="1026" type="curve"></point>
      <point x="246" y="1026" type="line"></point>
      <point x="246" y="1026"></point>
      <point x="271" y="963"></point>
      <point x="280" y="858" type="curve"></point>
      <point x="351" y="984"></point>
      <point x="469" y="1052"></point>
      <point x="625" y="1052" type="curve" smooth="yes"></point>
      <point x="747" y="1052"></point>
      <point x="854" y="1003"></point>
      <point x="909" y="870" type="curve"></point>
      <point x="986" y="988"></point>
      <point x="1096" y="1052"></point>
      <point x="1261" y="1052" type="curve" smooth="yes"></point>
      <point x="1442" y="1052"></point>
      <point x="1594" y="946"></point>
      <point x="1594" y="625" type="curve" smooth="yes"></point>
      <point x="1594" y="235" type="line" smooth="yes"></point>
      <point x="1594" y="158"></point>
      <point x="1623" y="120"></point>
      <point x="1684" y="120" type="curve" smooth="yes"></point>
      <point x="1710" y="120"></point>
      <point x="1739" y="124"></point>
      <point x="1773" y="132" type="curve"></point>
      <point x="1791" y="6" type="line"></point>
      <point x="1738" y="-13"></point>
      <point x="1684" y="-22"></point>
      <point x="1630" y="-22" type="curve" smooth="yes"></point>
      <point x="1495" y="-22"></point>
      <point x="1424" y="57"></point>
    </contour>
  </outline>
</glyph>
<glyph name="n" format="1">
  <advance width="1176"></advance>
  <unicode hex="006E"></unicode>
  <outline>
    <contour>
      <point x="823" y="216" type="curve" smooth="yes"></point>
      <point x="823" y="621" type="line" smooth="yes"></point>
      <point x="823" y="859"></point>
      <point x="746" y="920"></point>
      <point x="614" y="920" type="curve" smooth="yes"></point>
      <point x="453" y="920"></point>
      <point x="304" y="815"></point>
      <point x="304" y="552" type="curve" smooth="yes"></point>
      <point x="304" y="0" type="line"></point>
      <point x="134" y="0" type="line"></point>
      <point x="134" y="634" type="line" smooth="yes"></point>
      <point x="134" y="833"></point>
      <point x="91" y="1026"></point>
      <point x="91" y="1026" type="curve"></point>
      <point x="262" y="1026" type="line"></point>
      <point x="262" y="1026"></point>
      <point x="280" y="977"></point>
      <point x="292" y="878" type="curve"></point>
      <point x="374" y="993"></point>
      <point x="481" y="1052"></point>
      <point x="639" y="1052" type="curve" smooth="yes"></point>
      <point x="833" y="1052"></point>
      <point x="993" y="946"></point>
      <point x="993" y="625" type="curve" smooth="yes"></point>
      <point x="993" y="235" type="line" smooth="yes"></point>
      <point x="993" y="139"></point>
      <point x="1028" y="110"></point>
      <point x="1079" y="110" type="curve" smooth="yes"></point>
      <point x="1122" y="110"></point>
      <point x="1177" y="131"></point>
      <point x="1207" y="148" type="curve"></point>
      <point x="1229" y="33" type="line"></point>
      <point x="1169" y="-6"></point>
      <point x="1091" y="-22"></point>
      <point x="1030" y="-22" type="curve" smooth="yes"></point>
      <point x="895" y="-22"></point>
      <point x="823" y="55"></point>
    </contour>
  </outline>
</glyph>
<glyph name="p" format="1">
  <advance width="1146"></advance>
  <unicode hex="0070"></unicode>
  <outline>
    <contour>
      <point x="304" y="161" type="line"></point>
      <point x="367" y="135"></point>
      <point x="440" y="110"></point>
      <point x="523" y="110" type="curve" smooth="yes"></point>
      <point x="716" y="110"></point>
      <point x="867" y="239"></point>
      <point x="867" y="541" type="curve" smooth="yes"></point>
      <point x="867" y="785"></point>
      <point x="770" y="920"></point>
      <point x="592" y="920" type="curve" smooth="yes"></point>
      <point x="389" y="920"></point>
      <point x="304" y="721"></point>
      <point x="304" y="500" type="curve" smooth="yes"></point>
    </contour>
    <contour>
      <point x="304" y="-574" type="line"></point>
      <point x="134" y="-574" type="line"></point>
      <point x="134" y="634" type="line" smooth="yes"></point>
      <point x="134" y="833"></point>
      <point x="91" y="1026"></point>
      <point x="91" y="1026" type="curve"></point>
      <point x="262" y="1026" type="line"></point>
      <point x="262" y="1026"></point>
      <point x="279" y="963"></point>
      <point x="291" y="870" type="curve"></point>
      <point x="351" y="969"></point>
      <point x="452" y="1052"></point>
      <point x="627" y="1052" type="curve" smooth="yes"></point>
      <point x="878" y="1052"></point>
      <point x="1041" y="853"></point>
      <point x="1041" y="543" type="curve" smooth="yes"></point>
      <point x="1041" y="186"></point>
      <point x="839" y="-22"></point>
      <point x="549" y="-22" type="curve" smooth="yes"></point>
      <point x="456" y="-22"></point>
      <point x="370" y="-1"></point>
      <point x="304" y="22" type="curve"></point>
    </contour>
  </outline>
</glyph>
<glyph name="q" format="1">
  <advance width="1176"></advance>
  <unicode hex="0071"></unicode>
  <outline>
    <contour>
      <point x="502" y="110" type="curve" smooth="yes"></point>
      <point x="706" y="110"></point>
      <point x="806" y="273"></point>
      <point x="806" y="476" type="curve" smooth="yes"></point>
      <point x="806" y="881" type="line"></point>
      <point x="766" y="893"></point>
      <point x="697" y="920"></point>
      <point x="624" y="920" type="curve" smooth="yes"></point>
      <point x="392" y="920"></point>
      <point x="247" y="734"></point>
      <point x="247" y="448" type="curve" smooth="yes"></point>
      <point x="247" y="248"></point>
      <point x="346" y="110"></point>
    </contour>
    <contour>
      <point x="966" y="-544" type="line" smooth="yes"></point>
      <point x="950" y="-551"></point>
      <point x="932" y="-555"></point>
      <point x="913" y="-555" type="curve" smooth="yes"></point>
      <point x="863" y="-555"></point>
      <point x="806" y="-526"></point>
      <point x="806" y="-441" type="curve" smooth="yes"></point>
      <point x="806" y="153" type="line"></point>
      <point x="730" y="28"></point>
      <point x="617" y="-22"></point>
      <point x="481" y="-22" type="curve" smooth="yes"></point>
      <point x="241" y="-22"></point>
      <point x="73" y="162"></point>
      <point x="73" y="438" type="curve" smooth="yes"></point>
      <point x="73" y="820"></point>
      <point x="295" y="1052"></point>
      <point x="627" y="1052" type="curve" smooth="yes"></point>
      <point x="756" y="1052"></point>
      <point x="896" y="1006"></point>
      <point x="976" y="954" type="curve"></point>
      <point x="976" y="-394" type="line"></point>
      <point x="1237" y="-285" type="line"></point>
      <point x="1283" y="-405" type="line"></point>
    </contour>
  </outline>
</glyph>
<glyph name="r" format="1">
  <advance width="735"></advance>
  <unicode hex="0072"></unicode>
  <outline>
    <contour>
      <point x="328" y="0" type="line"></point>
      <point x="158" y="0" type="line"></point>
      <point x="158" y="634" type="line" smooth="yes"></point>
      <point x="158" y="833"></point>
      <point x="115" y="1026"></point>
      <point x="115" y="1026" type="curve"></point>
      <point x="286" y="1026" type="line"></point>
      <point x="286" y="1026"></point>
      <point x="302" y="981"></point>
      <point x="314" y="890" type="curve"></point>
      <point x="360" y="975"></point>
      <point x="447" y="1047"></point>
      <point x="587" y="1047" type="curve" smooth="yes"></point>
      <point x="627" y="1047"></point>
      <point x="652" y="1045"></point>
      <point x="701" y="1032" type="curve"></point>
      <point x="687" y="887" type="line"></point>
      <point x="645" y="900"></point>
      <point x="607" y="906"></point>
      <point x="574" y="906" type="curve" smooth="yes"></point>
      <point x="364" y="906"></point>
      <point x="328" y="674"></point>
      <point x="328" y="482" type="curve" smooth="yes"></point>
    </contour>
  </outline>
</glyph>
<glyph name="s" format="1">
  <advance width="853"></advance>
  <unicode hex="0073"></unicode>
  <outline>
    <contour>
      <point x="788" y="290" type="curve" smooth="yes"></point>
      <point x="788" y="91"></point>
      <point x="645" y="-22"></point>
      <point x="446" y="-22" type="curve" smooth="yes"></point>
      <point x="276" y="-22"></point>
      <point x="150" y="38"></point>
      <point x="89" y="75" type="curve"></point>
      <point x="141" y="206" type="line"></point>
      <point x="217" y="156"></point>
      <point x="337" y="110"></point>
      <point x="437" y="110" type="curve" smooth="yes"></point>
      <point x="536" y="110"></point>
      <point x="625" y="155"></point>
      <point x="625" y="272" type="curve" smooth="yes"></point>
      <point x="625" y="365"></point>
      <point x="581" y="392"></point>
      <point x="422" y="465" type="curve" smooth="yes"></point>
      <point x="278" y="532"></point>
      <point x="97" y="575"></point>
      <point x="97" y="771" type="curve" smooth="yes"></point>
      <point x="97" y="961"></point>
      <point x="252" y="1052"></point>
      <point x="444" y="1052" type="curve" smooth="yes"></point>
      <point x="580" y="1052"></point>
      <point x="685" y="1013"></point>
      <point x="755" y="976" type="curve"></point>
      <point x="717" y="838" type="line"></point>
      <point x="633" y="887"></point>
      <point x="535" y="920"></point>
      <point x="453" y="920" type="curve" smooth="yes"></point>
      <point x="350" y="920"></point>
      <point x="267" y="872"></point>
      <point x="267" y="784" type="curve" smooth="yes"></point>
      <point x="267" y="695"></point>
      <point x="349" y="670"></point>
      <point x="498" y="601" type="curve" smooth="yes"></point>
      <point x="662" y="525"></point>
      <point x="788" y="468"></point>
    </contour>
  </outline>
</glyph>
<glyph name="t" format="1">
  <advance width="706"/>
  <unicode hex="0074"/>
  <outline>
    <contour>
      <point x="226" y="216" type="line" smooth="yes"/>
      <point x="226" y="52"/>
      <point x="313" y="-22"/>
      <point x="452" y="-22" type="curve" smooth="yes"/>
      <point x="502" y="-22"/>
      <point x="573" y="-11"/>
      <point x="639" y="8" type="curve"/>
      <point x="620" y="134" type="line"/>
      <point x="583" y="126"/>
      <point x="539" y="120"/>
      <point x="513" y="120" type="curve" smooth="yes"/>
      <point x="438" y="120"/>
      <point x="396" y="154"/>
      <point x="396" y="235" type="curve" smooth="yes"/>
      <point x="396" y="920" type="line"/>
      <point x="652" y="920" type="line"/>
      <point x="652" y="1026" type="line"/>
      <point x="396" y="1026" type="line"/>
      <point x="396" y="1353" type="line"/>
      <point x="226" y="1353" type="line"/>
      <point x="226" y="1026" type="line"/>
      <point x="23" y="1026" type="line"/>
      <point x="23" y="920" type="line"/>
      <point x="226" y="920" type="line"/>
    </contour>
  </outline>
</glyph>
<glyph name="u" format="1">
  <advance width="1176"></advance>
  <unicode hex="0075"></unicode>
  <outline>
    <contour>
      <point x="482" y="-22" type="curve" smooth="yes"></point>
      <point x="301" y="-22"></point>
      <point x="125" y="78"></point>
      <point x="125" y="347" type="curve" smooth="yes"></point>
      <point x="125" y="365" type="line"></point>
      <point x="131" y="582" type="line" smooth="yes"></point>
      <point x="131" y="599"></point>
      <point x="132" y="617"></point>
      <point x="132" y="634" type="curve" smooth="yes"></point>
      <point x="132" y="832"></point>
      <point x="103" y="1026"></point>
      <point x="103" y="1026" type="curve"></point>
      <point x="274" y="1026" type="line"></point>
      <point x="274" y="1026"></point>
      <point x="303" y="906"></point>
      <point x="303" y="667" type="curve" smooth="yes"></point>
      <point x="303" y="640"></point>
      <point x="303" y="613"></point>
      <point x="302" y="583" type="curve" smooth="yes"></point>
      <point x="296" y="365" type="line"></point>
      <point x="296" y="352" type="line" smooth="yes"></point>
      <point x="296" y="165"></point>
      <point x="394" y="110"></point>
      <point x="507" y="110" type="curve" smooth="yes"></point>
      <point x="672" y="110"></point>
      <point x="802" y="259"></point>
      <point x="802" y="482" type="curve" smooth="yes"></point>
      <point x="802" y="1026" type="line"></point>
      <point x="972" y="1026" type="line"></point>
      <point x="972" y="235" type="line" smooth="yes"></point>
      <point x="972" y="158"></point>
      <point x="1001" y="120"></point>
      <point x="1062" y="120" type="curve" smooth="yes"></point>
      <point x="1088" y="120"></point>
      <point x="1117" y="124"></point>
      <point x="1151" y="132" type="curve"></point>
      <point x="1169" y="6" type="line"></point>
      <point x="1116" y="-13"></point>
      <point x="1062" y="-22"></point>
      <point x="1008" y="-22" type="curve" smooth="yes"></point>
      <point x="895" y="-22"></point>
      <point x="826" y="33.3182"></point>
      <point x="807" y="144.54" type="curve"></point>
      <point x="734" y="50.7622"></point>
      <point x="646" y="-22"></point>
    </contour>
  </outline>
</glyph>
<glyph name="v" format="1">
  <advance width="1059"></advance>
  <unicode hex="0076"></unicode>
  <outline>
    <contour>
      <point x="439" y="0" type="line"></point>
      <point x="37" y="1026" type="line"></point>
      <point x="219" y="1026" type="line"></point>
      <point x="472" y="353" type="line"></point>
      <point x="529" y="167" type="line"></point>
      <point x="617" y="465"></point>
      <point x="729" y="739"></point>
      <point x="828" y="1026" type="curve"></point>
      <point x="1005" y="1026" type="line"></point>
      <point x="607" y="0" type="line"></point>
    </contour>
  </outline>
</glyph>
<glyph name="x" format="1">
  <advance width="1029"></advance>
  <unicode hex="0078"></unicode>
  <outline>
    <contour>
      <point x="24" y="0" type="line"></point>
      <point x="416" y="514" type="line"></point>
      <point x="43" y="1026" type="line"></point>
      <point x="245" y="1026" type="line"></point>
      <point x="522" y="638" type="line"></point>
      <point x="799" y="1026" type="line"></point>
      <point x="978" y="1026" type="line"></point>
      <point x="608" y="518" type="line"></point>
      <point x="991" y="0" type="line"></point>
      <point x="790" y="0" type="line"></point>
      <point x="511" y="396" type="line"></point>
      <point x="214" y="0" type="line"></point>
    </contour>
  </outline>
</glyph>
<glyph name="y" format="1">
  <advance width="1116"></advance>
  <unicode hex="0079"></unicode>
  <outline>
    <contour>
      <point x="512" y="-22" type="curve" smooth="yes"></point>
      <point x="330" y="-22"></point>
      <point x="125" y="76"></point>
      <point x="125" y="349" type="curve" smooth="yes"></point>
      <point x="125" y="365" type="line"></point>
      <point x="131" y="582" type="line" smooth="yes"></point>
      <point x="132" y="617"></point>
      <point x="132" y="649"></point>
      <point x="132" y="679" type="curve" smooth="yes"></point>
      <point x="132" y="927"></point>
      <point x="103" y="1026"></point>
      <point x="103" y="1026" type="curve"></point>
      <point x="274" y="1026" type="line"></point>
      <point x="274" y="1026"></point>
      <point x="303" y="959"></point>
      <point x="303" y="699" type="curve" smooth="yes"></point>
      <point x="303" y="667"></point>
      <point x="303" y="633"></point>
      <point x="302" y="595" type="curve" smooth="yes"></point>
      <point x="296" y="365" type="line"></point>
      <point x="296" y="354" type="line" smooth="yes"></point>
      <point x="296" y="165"></point>
      <point x="426" y="110"></point>
      <point x="540" y="110" type="curve" smooth="yes"></point>
      <point x="731" y="110"></point>
      <point x="820" y="258"></point>
      <point x="820" y="453" type="curve" smooth="yes"></point>
      <point x="820" y="1026" type="line"></point>
      <point x="990" y="1026" type="line"></point>
      <point x="990" y="9" type="line" smooth="yes"></point>
      <point x="990" y="-309"></point>
      <point x="829" y="-566"></point>
      <point x="481" y="-566" type="curve" smooth="yes"></point>
      <point x="393" y="-566"></point>
      <point x="293" y="-549"></point>
      <point x="180" y="-513" type="curve"></point>
      <point x="198" y="-370" type="line"></point>
      <point x="303" y="-407"></point>
      <point x="394" y="-424"></point>
      <point x="473" y="-424" type="curve" smooth="yes"></point>
      <point x="705" y="-424"></point>
      <point x="820" y="-272"></point>
      <point x="820" y="-12" type="curve" smooth="yes"></point>
      <point x="820" y="136" type="line"></point>
      <point x="754" y="21"></point>
      <point x="648" y="-22"></point>
    </contour>
  </outline>
</glyph>
<glyph name="z" format="1">
  <advance width="905"></advance>
  <unicode hex="007A"></unicode>
  <outline>
    <contour>
      <point x="72" y="0" type="line"></point>
      <point x="72" y="89" type="line"></point>
      <point x="617" y="891" type="line"></point>
      <point x="98" y="891" type="line"></point>
      <point x="98" y="1026" type="line"></point>
      <point x="840" y="1026" type="line"></point>
      <point x="840" y="939" type="line"></point>
      <point x="297" y="134" type="line"></point>
      <point x="857" y="134" type="line"></point>
      <point x="857" y="0" type="line"></point>
    </contour>
  </outline>
</glyph>
<glyph name="braceleft" format="1">
  <advance width="823"></advance>
  <unicode hex="007B"></unicode>
  <outline>
    <contour>
      <point x="734" y="-225" type="line"></point>
      <point x="510" y="-219"></point>
      <point x="352" y="-128"></point>
      <point x="352" y="69" type="curve" smooth="yes"></point>
      <point x="352" y="319" type="line" smooth="yes"></point>
      <point x="352" y="449"></point>
      <point x="300" y="548"></point>
      <point x="160" y="560" type="curve"></point>
      <point x="160" y="695" type="line"></point>
      <point x="275" y="703"></point>
      <point x="351" y="783"></point>
      <point x="352" y="912" type="curve"></point>
      <point x="352" y="1156" type="line" smooth="yes"></point>
      <point x="352" y="1350"></point>
      <point x="473" y="1480"></point>
      <point x="735" y="1480" type="curve"></point>
      <point x="735" y="1337" type="line"></point>
      <point x="622" y="1335"></point>
      <point x="519" y="1281"></point>
      <point x="519" y="1148" type="curve" smooth="yes"></point>
      <point x="519" y="875" type="line" smooth="yes"></point>
      <point x="519" y="736"></point>
      <point x="445" y="657"></point>
      <point x="340" y="625" type="curve"></point>
      <point x="457" y="582"></point>
      <point x="519" y="467"></point>
      <point x="519" y="360" type="curve" smooth="yes"></point>
      <point x="519" y="128" type="line" smooth="yes"></point>
      <point x="519" y="-42"></point>
      <point x="623" y="-82"></point>
      <point x="734" y="-82" type="curve"></point>
    </contour>
  </outline>
</glyph>
<glyph name="bar" format="1">
  <advance width="663"></advance>
  <unicode hex="007C"></unicode>
  <outline>
    <contour>
      <point x="245" y="-200" type="line"></point>
      <point x="245" y="1541" type="line"></point>
      <point x="409" y="1541" type="line"></point>
      <point x="409" y="-200" type="line"></point>
    </contour>
  </outline>
</glyph>
<glyph name="braceright" format="1">
  <advance width="1026"></advance>
  <unicode hex="007D"></unicode>
  <outline>
    <contour>
      <point x="276" y="1480" type="line"></point>
      <point x="500" y="1474"></point>
      <point x="658" y="1383"></point>
      <point x="658" y="1186" type="curve" smooth="yes"></point>
      <point x="658" y="936" type="line" smooth="yes"></point>
      <point x="658" y="806"></point>
      <point x="710" y="707"></point>
      <point x="850" y="695" type="curve"></point>
      <point x="850" y="560" type="line"></point>
      <point x="735" y="552"></point>
      <point x="659" y="472"></point>
      <point x="658" y="343" type="curve"></point>
      <point x="658" y="99" type="line" smooth="yes"></point>
      <point x="658" y="-95"></point>
      <point x="537" y="-225"></point>
      <point x="275" y="-225" type="curve"></point>
      <point x="275" y="-82" type="line"></point>
      <point x="388" y="-80"></point>
      <point x="491" y="-26"></point>
      <point x="491" y="107" type="curve" smooth="yes"></point>
      <point x="491" y="380" type="line" smooth="yes"></point>
      <point x="491" y="519"></point>
      <point x="565" y="598"></point>
      <point x="670" y="630" type="curve"></point>
      <point x="553" y="673"></point>
      <point x="491" y="788"></point>
      <point x="491" y="895" type="curve" smooth="yes"></point>
      <point x="491" y="1127" type="line" smooth="yes"></point>
      <point x="491" y="1297"></point>
      <point x="387" y="1337"></point>
      <point x="276" y="1337" type="curve"></point>
    </contour>
  </outline>
</glyph>
<glyph name="asciitilde" format="1">
  <advance width="1207"></advance>
  <unicode hex="007E"></unicode>
  <outline>
    <contour>
      <point x="194" y="385" type="curve"></point>
      <point x="79" y="440" type="line"></point>
      <point x="111" y="593"></point>
      <point x="220" y="705"></point>
      <point x="374" y="705" type="curve" smooth="yes"></point>
      <point x="433" y="705"></point>
      <point x="487" y="683"></point>
      <point x="534" y="664" type="curve" smooth="yes"></point>
      <point x="633" y="623"></point>
      <point x="750" y="545"></point>
      <point x="821" y="545" type="curve" smooth="yes"></point>
      <point x="917" y="545"></point>
      <point x="970" y="641"></point>
      <point x="988" y="723" type="curve"></point>
      <point x="1113" y="684" type="line"></point>
      <point x="1076" y="528"></point>
      <point x="975" y="410"></point>
      <point x="820" y="410" type="curve" smooth="yes"></point>
      <point x="770" y="410"></point>
      <point x="720" y="433"></point>
      <point x="680" y="452" type="curve" smooth="yes"></point>
      <point x="581" y="498"></point>
      <point x="463" y="571"></point>
      <point x="376" y="571" type="curve" smooth="yes"></point>
      <point x="270" y="571"></point>
      <point x="214" y="475"></point>
    </contour>
  </outline>
</glyph>
<glyph name="exclamdown" format="1">
  <advance width="663"></advance>
  <unicode hex="00A1"></unicode>
  <outline>
    <contour>
      <point x="366" y="700" type="line"></point>
      <point x="427" y="-427" type="line"></point>
      <point x="240" y="-427" type="line"></point>
      <point x="300" y="700" type="line"></point>
    </contour>
    <contour>
      <point x="329" y="1139" type="curve" smooth="yes"></point>
      <point x="402" y="1139"></point>
      <point x="442" y="1087"></point>
      <point x="442" y="1027" type="curve" smooth="yes"></point>
      <point x="442" y="957"></point>
      <point x="385" y="916"></point>
      <point x="328" y="916" type="curve" smooth="yes"></point>
      <point x="255" y="916"></point>
      <point x="215" y="968"></point>
      <point x="215" y="1028" type="curve" smooth="yes"></point>
      <point x="215" y="1098"></point>
      <point x="272" y="1139"></point>
    </contour>
  </outline>
</glyph>
<glyph name="cent" format="1">
  <advance width="1146"></advance>
  <unicode hex="00A2"></unicode>
  <outline>
    <contour>
      <point x="584" y="122" type="curve"></point>
      <point x="584" y="904" type="line"></point>
      <point x="404" y="874"></point>
      <point x="309" y="714"></point>
      <point x="309" y="508" type="curve" smooth="yes"></point>
      <point x="309" y="285"></point>
      <point x="421" y="148"></point>
    </contour>
    <contour>
      <point x="584" y="-235" type="line"></point>
      <point x="584" y="-20" type="line"></point>
      <point x="329" y="6"></point>
      <point x="136" y="213"></point>
      <point x="136" y="503" type="curve" smooth="yes"></point>
      <point x="136" y="805"></point>
      <point x="308" y="1024"></point>
      <point x="584" y="1049" type="curve"></point>
      <point x="584" y="1281" type="line"></point>
      <point x="692" y="1281" type="line"></point>
      <point x="692" y="1049" type="line"></point>
      <point x="821" y="1039"></point>
      <point x="923" y="991"></point>
      <point x="983" y="912" type="curve"></point>
      <point x="906" y="801" type="line"></point>
      <point x="857" y="862"></point>
      <point x="784" y="898"></point>
      <point x="692" y="907" type="curve"></point>
      <point x="692" y="120" type="line"></point>
      <point x="774" y="129"></point>
      <point x="867" y="159"></point>
      <point x="963" y="225" type="curve"></point>
      <point x="999" y="87" type="line"></point>
      <point x="893" y="23"></point>
      <point x="787" y="-10"></point>
      <point x="692" y="-20" type="curve"></point>
      <point x="692" y="-235" type="line"></point>
    </contour>
  </outline>
</glyph>
<glyph name="sterling" format="1">
  <advance width="1146"></advance>
  <unicode hex="00A3"></unicode>
  <outline>
    <contour>
      <point x="90" y="0" type="line"></point>
      <point x="90" y="138" type="line"></point>
      <point x="194" y="199"></point>
      <point x="247" y="332"></point>
      <point x="247" y="500" type="curve" smooth="yes"></point>
      <point x="247" y="711" type="line"></point>
      <point x="64" y="711" type="line"></point>
      <point x="64" y="843" type="line"></point>
      <point x="246" y="843" type="line"></point>
      <point x="246" y="1029" type="line" smooth="yes"></point>
      <point x="246" y="1379"></point>
      <point x="369" y="1586"></point>
      <point x="665" y="1586" type="curve" smooth="yes"></point>
      <point x="804" y="1586"></point>
      <point x="913" y="1556"></point>
      <point x="990" y="1495" type="curve"></point>
      <point x="938" y="1364" type="line"></point>
      <point x="868" y="1407"></point>
      <point x="782" y="1436"></point>
      <point x="675" y="1436" type="curve" smooth="yes"></point>
      <point x="475" y="1436"></point>
      <point x="418" y="1294"></point>
      <point x="418" y="1085" type="curve" smooth="yes"></point>
      <point x="418" y="843" type="line"></point>
      <point x="759" y="843" type="line"></point>
      <point x="759" y="711" type="line"></point>
      <point x="420" y="711" type="line"></point>
      <point x="420" y="551" type="line" smooth="yes"></point>
      <point x="420" y="352"></point>
      <point x="377" y="217"></point>
      <point x="283" y="141" type="curve"></point>
      <point x="1033" y="141" type="line"></point>
      <point x="1033" y="0" type="line"></point>
    </contour>
  </outline>
</glyph>
<glyph name="currency" format="1">
  <advance width="1056"></advance>
  <unicode hex="00A4"></unicode>
  <outline>
    <contour>
      <point x="814" y="659" type="curve" smooth="yes"></point>
      <point x="814" y="826"></point>
      <point x="689" y="965"></point>
      <point x="526" y="965" type="curve" smooth="yes"></point>
      <point x="367" y="965"></point>
      <point x="236" y="825"></point>
      <point x="236" y="658" type="curve" smooth="yes"></point>
      <point x="236" y="489"></point>
      <point x="363" y="351"></point>
      <point x="525" y="351" type="curve" smooth="yes"></point>
      <point x="689" y="351"></point>
      <point x="814" y="485"></point>
    </contour>
    <contour>
      <point x="906" y="659" type="curve" smooth="yes"></point>
      <point x="906" y="560"></point>
      <point x="870" y="475"></point>
      <point x="812" y="408" type="curve"></point>
      <point x="980" y="246" type="line"></point>
      <point x="943" y="210" type="line"></point>
      <point x="777" y="371" type="line"></point>
      <point x="711" y="310"></point>
      <point x="623" y="274"></point>
      <point x="527" y="274" type="curve" smooth="yes"></point>
      <point x="438" y="274"></point>
      <point x="355" y="308"></point>
      <point x="290" y="363" type="curve"></point>
      <point x="130" y="195" type="line"></point>
      <point x="94" y="232" type="line"></point>
      <point x="253" y="398" type="line"></point>
      <point x="189" y="467"></point>
      <point x="148" y="559"></point>
      <point x="148" y="661" type="curve" smooth="yes"></point>
      <point x="148" y="754"></point>
      <point x="184" y="840"></point>
      <point x="242" y="908" type="curve"></point>
      <point x="79" y="1065" type="line"></point>
      <point x="118" y="1104" type="line"></point>
      <point x="278" y="947" type="line"></point>
      <point x="345" y="1009"></point>
      <point x="435" y="1048"></point>
      <point x="529" y="1048" type="curve" smooth="yes"></point>
      <point x="622" y="1048"></point>
      <point x="705" y="1013"></point>
      <point x="769" y="956" type="curve"></point>
      <point x="925" y="1120" type="line"></point>
      <point x="965" y="1081" type="line"></point>
      <point x="807" y="917" type="line"></point>
      <point x="869" y="848"></point>
      <point x="906" y="758"></point>
    </contour>
  </outline>
</glyph>
<glyph name="yen" format="1">
  <advance width="1235"></advance>
  <unicode hex="00A5"></unicode>
  <outline>
    <contour>
      <point x="152" y="283" type="line"></point>
      <point x="152" y="403" type="line"></point>
      <point x="531" y="403" type="line"></point>
      <point x="531" y="574" type="line"></point>
      <point x="146" y="574" type="line"></point>
      <point x="146" y="696" type="line"></point>
      <point x="506" y="696" type="line"></point>
      <point x="15" y="1560" type="line"></point>
      <point x="203" y="1560" type="line"></point>
      <point x="619" y="797" type="line"></point>
      <point x="1039" y="1560" type="line"></point>
      <point x="1229" y="1560" type="line"></point>
      <point x="729" y="696" type="line"></point>
      <point x="1050" y="696" type="line"></point>
      <point x="1050" y="574" type="line"></point>
      <point x="706" y="574" type="line"></point>
      <point x="706" y="403" type="line"></point>
      <point x="1053" y="403" type="line"></point>
      <point x="1053" y="283" type="line"></point>
      <point x="706" y="283" type="line"></point>
      <point x="706" y="0" type="line"></point>
      <point x="532" y="0" type="line"></point>
      <point x="532" y="283" type="line"></point>
    </contour>
  </outline>
</glyph>
<glyph name="brokenbar" format="1">
  <advance width="663"></advance>
  <unicode hex="00A6"></unicode>
  <outline>
    <contour>
      <point x="251" y="677" type="line"></point>
      <point x="251" y="1545" type="line"></point>
      <point x="408" y="1545" type="line"></point>
      <point x="408" y="677" type="line"></point>
    </contour>
    <contour>
      <point x="251" y="-491" type="line"></point>
      <point x="251" y="393" type="line"></point>
      <point x="408" y="393" type="line"></point>
      <point x="408" y="-491" type="line"></point>
    </contour>
  </outline>
</glyph>
<glyph name="section" format="1">
  <advance width="1000"></advance>
  <unicode hex="00A7"></unicode>
  <outline>
    <contour>
      <point x="539" y="557" type="curve"></point>
      <point x="601" y="596"></point>
      <point x="675" y="649"></point>
      <point x="675" y="728" type="curve" smooth="yes"></point>
      <point x="675" y="849"></point>
      <point x="524" y="887"></point>
      <point x="447" y="920" type="curve"></point>
      <point x="389" y="889"></point>
      <point x="319" y="834"></point>
      <point x="319" y="746" type="curve" smooth="yes"></point>
      <point x="319" y="622"></point>
      <point x="432" y="599"></point>
    </contour>
    <contour>
      <point x="434" y="-24" type="curve" smooth="yes"></point>
      <point x="336" y="-24"></point>
      <point x="245" y="-4"></point>
      <point x="169" y="27" type="curve"></point>
      <point x="167" y="172" type="line"></point>
      <point x="250" y="136"></point>
      <point x="329" y="110"></point>
      <point x="429" y="110" type="curve" smooth="yes"></point>
      <point x="556" y="110"></point>
      <point x="658" y="172"></point>
      <point x="658" y="260" type="curve" smooth="yes"></point>
      <point x="658" y="371"></point>
      <point x="561" y="385"></point>
      <point x="456" y="431" type="curve" smooth="yes"></point>
      <point x="376" y="466" type="line" smooth="yes"></point>
      <point x="257" y="518"></point>
      <point x="142" y="599"></point>
      <point x="142" y="734" type="curve" smooth="yes"></point>
      <point x="142" y="861"></point>
      <point x="243" y="931"></point>
      <point x="331" y="974" type="curve"></point>
      <point x="246" y="1025"></point>
      <point x="178" y="1087"></point>
      <point x="178" y="1211" type="curve" smooth="yes"></point>
      <point x="178" y="1405"></point>
      <point x="358" y="1480"></point>
      <point x="550" y="1480" type="curve" smooth="yes"></point>
      <point x="639" y="1480"></point>
      <point x="699" y="1462"></point>
      <point x="774" y="1440" type="curve"></point>
      <point x="776" y="1296" type="line"></point>
      <point x="716" y="1323"></point>
      <point x="636" y="1346"></point>
      <point x="555" y="1346" type="curve" smooth="yes"></point>
      <point x="450" y="1346"></point>
      <point x="349" y="1319"></point>
      <point x="349" y="1215" type="curve" smooth="yes"></point>
      <point x="349" y="1135"></point>
      <point x="401" y="1100"></point>
      <point x="457" y="1069" type="curve" smooth="yes"></point>
      <point x="609" y="985"></point>
      <point x="853" y="931"></point>
      <point x="853" y="742" type="curve" smooth="yes"></point>
      <point x="853" y="614"></point>
      <point x="750" y="541"></point>
      <point x="667" y="491" type="curve"></point>
      <point x="752" y="449"></point>
      <point x="830" y="392"></point>
      <point x="830" y="269" type="curve" smooth="yes"></point>
      <point x="830" y="57"></point>
      <point x="646" y="-24"></point>
    </contour>
  </outline>
</glyph>
<glyph name="dieresis" format="1">
  <advance width="814"></advance>
  <unicode hex="00A8"></unicode>
  <outline>
    <contour>
      <point x="562" y="1362" type="curve" smooth="yes"></point>
      <point x="562" y="1386" type="line" smooth="yes"></point>
      <point x="562" y="1431"></point>
      <point x="599" y="1468"></point>
      <point x="644" y="1468" type="curve" smooth="yes"></point>
      <point x="689" y="1468"></point>
      <point x="726" y="1431"></point>
      <point x="726" y="1386" type="curve" smooth="yes"></point>
      <point x="726" y="1362" type="line" smooth="yes"></point>
      <point x="726" y="1317"></point>
      <point x="689" y="1280"></point>
      <point x="644" y="1280" type="curve" smooth="yes"></point>
      <point x="599" y="1280"></point>
      <point x="562" y="1317"></point>
    </contour>
    <contour>
      <point x="230" y="1362" type="curve" smooth="yes"></point>
      <point x="230" y="1386" type="line" smooth="yes"></point>
      <point x="230" y="1431"></point>
      <point x="267" y="1468"></point>
      <point x="312" y="1468" type="curve" smooth="yes"></point>
      <point x="357" y="1468"></point>
      <point x="394" y="1431"></point>
      <point x="394" y="1386" type="curve" smooth="yes"></point>
      <point x="394" y="1362" type="line" smooth="yes"></point>
      <point x="394" y="1317"></point>
      <point x="357" y="1280"></point>
      <point x="312" y="1280" type="curve" smooth="yes"></point>
      <point x="267" y="1280"></point>
      <point x="230" y="1317"></point>
    </contour>
  </outline>
</glyph>
<glyph name="copyright" format="1">
  <advance width="1677"></advance>
  <unicode hex="00A9"></unicode>
  <outline>
    <contour>
      <point x="778" y="80" type="curve" smooth="yes"></point>
      <point x="1129" y="80"></point>
      <point x="1407" y="374"></point>
      <point x="1407" y="725" type="curve" smooth="yes"></point>
      <point x="1407" y="1077"></point>
      <point x="1129" y="1371"></point>
      <point x="778" y="1371" type="curve" smooth="yes"></point>
      <point x="426" y="1371"></point>
      <point x="148" y="1077"></point>
      <point x="148" y="725" type="curve" smooth="yes"></point>
      <point x="148" y="374"></point>
      <point x="426" y="80"></point>
    </contour>
    <contour>
      <point x="779" y="1480" type="curve" smooth="yes"></point>
      <point x="1193" y="1480"></point>
      <point x="1531" y="1141"></point>
      <point x="1531" y="727" type="curve" smooth="yes"></point>
      <point x="1531" y="314"></point>
      <point x="1193" y="-25"></point>
      <point x="779" y="-25" type="curve" smooth="yes"></point>
      <point x="365" y="-25"></point>
      <point x="27" y="314"></point>
      <point x="27" y="727" type="curve" smooth="yes"></point>
      <point x="27" y="1141"></point>
      <point x="365" y="1480"></point>
    </contour>
    <contour>
      <point x="804" y="249" type="curve" smooth="yes"></point>
      <point x="509" y="249"></point>
      <point x="337" y="473"></point>
      <point x="337" y="729" type="curve" smooth="yes"></point>
      <point x="337" y="1042"></point>
      <point x="545" y="1208"></point>
      <point x="814" y="1208" type="curve" smooth="yes"></point>
      <point x="924" y="1208"></point>
      <point x="1019" y="1174"></point>
      <point x="1097" y="1105" type="curve"></point>
      <point x="1067" y="985" type="line"></point>
      <point x="997" y="1048"></point>
      <point x="911" y="1080"></point>
      <point x="808" y="1080" type="curve" smooth="yes"></point>
      <point x="598" y="1080"></point>
      <point x="490" y="920"></point>
      <point x="490" y="733" type="curve" smooth="yes"></point>
      <point x="490" y="504"></point>
      <point x="623" y="380"></point>
      <point x="834" y="380" type="curve" smooth="yes"></point>
      <point x="931" y="380"></point>
      <point x="1005" y="411"></point>
      <point x="1063" y="460" type="curve"></point>
      <point x="1100" y="339" type="line"></point>
      <point x="1017" y="279"></point>
      <point x="919" y="249"></point>
    </contour>
  </outline>
</glyph>
<glyph name="ordfeminine" format="1">
  <advance width="941"></advance>
  <unicode hex="00AA"></unicode>
  <outline>
    <contour>
      <point x="429" y="819.964" type="curve" smooth="yes"></point>
      <point x="563" y="819.964"></point>
      <point x="618" y="923.712"></point>
      <point x="618" y="1060.26" type="curve" smooth="yes"></point>
      <point x="618" y="1369.11" type="line"></point>
      <point x="589" y="1378.52"></point>
      <point x="545" y="1387.52"></point>
      <point x="492" y="1387.52" type="curve" smooth="yes"></point>
      <point x="319" y="1387.52"></point>
      <point x="237" y="1220.32"></point>
      <point x="237" y="1068.76" type="curve" smooth="yes"></point>
      <point x="237" y="938.102"></point>
      <point x="296" y="819.964"></point>
    </contour>
    <contour>
      <point x="422" y="727.592" type="curve" smooth="yes"></point>
      <point x="220" y="727.592"></point>
      <point x="115" y="894.161"></point>
      <point x="115" y="1075.71" type="curve" smooth="yes"></point>
      <point x="115" y="1269.83"></point>
      <point x="236" y="1479.77"></point>
      <point x="513" y="1479.77" type="curve" smooth="yes"></point>
      <point x="602" y="1479.77"></point>
      <point x="682" y="1455.26"></point>
      <point x="737" y="1426.54" type="curve"></point>
      <point x="737" y="911.785" type="line" smooth="yes"></point>
      <point x="737" y="857.157"></point>
      <point x="758" y="829.844"></point>
      <point x="802" y="829.844" type="curve" smooth="yes"></point>
      <point x="827" y="829.844"></point>
      <point x="847" y="832.646"></point>
      <point x="864" y="838.248" type="curve"></point>
      <point x="880" y="747.902" type="line"></point>
      <point x="840" y="734.596"></point>
      <point x="802" y="728.293"></point>
      <point x="763" y="728.293" type="curve" smooth="yes"></point>
      <point x="683" y="728.293"></point>
      <point x="636" y="766.812"></point>
      <point x="622" y="844.551" type="curve"></point>
      <point x="583" y="775.216"></point>
      <point x="527" y="727.592"></point>
    </contour>
  </outline>
</glyph>
<glyph name="guillemotleft" format="1">
  <advance width="935"></advance>
  <unicode hex="00AB"></unicode>
  <outline>
    <contour>
      <point x="694" y="173" type="line"></point>
      <point x="432" y="543" type="line"></point>
      <point x="699" y="916" type="line"></point>
      <point x="858" y="916" type="line"></point>
      <point x="595" y="543" type="line"></point>
      <point x="851" y="173" type="line"></point>
    </contour>
    <contour>
      <point x="335" y="173" type="line"></point>
      <point x="67" y="543" type="line"></point>
      <point x="341" y="916" type="line"></point>
      <point x="494" y="916" type="line"></point>
      <point x="237" y="543" type="line"></point>
      <point x="486" y="173" type="line"></point>
    </contour>
  </outline>
</glyph>
<glyph name="logicalnot" format="1">
  <advance width="1237"></advance>
  <unicode hex="00AC"></unicode>
  <outline>
    <contour>
      <point x="945" y="238" type="line"></point>
      <point x="945" y="659" type="line"></point>
      <point x="73" y="659" type="line"></point>
      <point x="73" y="798" type="line"></point>
      <point x="1095" y="798" type="line"></point>
      <point x="1095" y="238" type="line"></point>
    </contour>
  </outline>
</glyph>
<glyph name="registered" format="1">
  <advance width="1794"></advance>
  <unicode hex="00AE"></unicode>
  <outline>
    <contour>
      <point x="749" y="293" type="line"></point>
      <point x="607" y="293" type="line"></point>
      <point x="607" y="1192" type="line"></point>
      <point x="821" y="1192" type="line" smooth="yes"></point>
      <point x="1101" y="1192"></point>
      <point x="1235" y="1116"></point>
      <point x="1235" y="950" type="curve" smooth="yes"></point>
      <point x="1235" y="802"></point>
      <point x="1138" y="731"></point>
      <point x="1012" y="706" type="curve"></point>
      <point x="1253" y="293" type="line"></point>
      <point x="1092" y="293" type="line"></point>
      <point x="877" y="684" type="line"></point>
      <point x="749" y="684" type="line"></point>
    </contour>
    <contour>
      <point x="747" y="803" type="line"></point>
      <point x="841" y="803" type="line" smooth="yes"></point>
      <point x="966" y="803"></point>
      <point x="1086" y="807"></point>
      <point x="1086" y="935" type="curve" smooth="yes"></point>
      <point x="1086" y="1062"></point>
      <point x="1000" y="1072"></point>
      <point x="885" y="1072" type="curve" smooth="yes"></point>
      <point x="818" y="1072" type="line"></point>
      <point x="747" y="1072" type="line"></point>
    </contour>
    <contour>
      <point x="899" y="80" type="curve" smooth="yes"></point>
      <point x="1250" y="80"></point>
      <point x="1528" y="374"></point>
      <point x="1528" y="725" type="curve" smooth="yes"></point>
      <point x="1528" y="1077"></point>
      <point x="1250" y="1371"></point>
      <point x="899" y="1371" type="curve" smooth="yes"></point>
      <point x="547" y="1371"></point>
      <point x="269" y="1077"></point>
      <point x="269" y="725" type="curve" smooth="yes"></point>
      <point x="269" y="374"></point>
      <point x="547" y="80"></point>
    </contour>
    <contour>
      <point x="900" y="1480" type="curve" smooth="yes"></point>
      <point x="1314" y="1480"></point>
      <point x="1652" y="1141"></point>
      <point x="1652" y="727" type="curve" smooth="yes"></point>
      <point x="1652" y="314"></point>
      <point x="1314" y="-25"></point>
      <point x="900" y="-25" type="curve" smooth="yes"></point>
      <point x="486" y="-25"></point>
      <point x="148" y="314"></point>
      <point x="148" y="727" type="curve" smooth="yes"></point>
      <point x="148" y="1141"></point>
      <point x="486" y="1480"></point>
    </contour>
  </outline>
</glyph>
<glyph name="macron" format="1">
  <advance width="844"></advance>
  <unicode hex="00AF"></unicode>
  <outline>
    <contour>
      <point x="230" y="1322" type="line"></point>
      <point x="230" y="1456" type="line"></point>
      <point x="802" y="1456" type="line"></point>
      <point x="802" y="1322" type="line"></point>
    </contour>
  </outline>
</glyph>
<glyph name="degree" format="1">
  <advance width="844"></advance>
  <unicode hex="00B0"></unicode>
  <outline>
    <contour>
      <point x="427" y="815" type="curve" smooth="yes"></point>
      <point x="222" y="815"></point>
      <point x="91" y="975"></point>
      <point x="91" y="1148" type="curve" smooth="yes"></point>
      <point x="91" y="1365"></point>
      <point x="262" y="1480"></point>
      <point x="427" y="1480" type="curve" smooth="yes"></point>
      <point x="634" y="1480"></point>
      <point x="763" y="1322"></point>
      <point x="763" y="1148" type="curve" smooth="yes"></point>
      <point x="763" y="930"></point>
      <point x="590" y="815"></point>
    </contour>
    <contour>
      <point x="427" y="936" type="curve" smooth="yes"></point>
      <point x="563" y="936"></point>
      <point x="631" y="1043"></point>
      <point x="631" y="1149" type="curve" smooth="yes"></point>
      <point x="631" y="1283"></point>
      <point x="536" y="1359"></point>
      <point x="427" y="1359" type="curve" smooth="yes"></point>
      <point x="292" y="1359"></point>
      <point x="223" y="1255"></point>
      <point x="223" y="1149" type="curve" smooth="yes"></point>
      <point x="223" y="1015"></point>
      <point x="310" y="936"></point>
    </contour>
  </outline>
</glyph>
<glyph name="plusminus" format="1">
  <advance width="1267"></advance>
  <unicode hex="00B1"></unicode>
  <outline>
    <contour>
      <point x="118" y="0" type="line"></point>
      <point x="118" y="138" type="line"></point>
      <point x="1150" y="138" type="line"></point>
      <point x="1150" y="0" type="line"></point>
    </contour>
    <contour>
      <point x="557" y="308" type="line"></point>
      <point x="557" y="680" type="line"></point>
      <point x="118" y="680" type="line"></point>
      <point x="118" y="818" type="line"></point>
      <point x="555" y="818" type="line"></point>
      <point x="555" y="1192" type="line"></point>
      <point x="704" y="1192" type="line"></point>
      <point x="704" y="818" type="line"></point>
      <point x="1146" y="818" type="line"></point>
      <point x="1146" y="680" type="line"></point>
      <point x="707" y="680" type="line"></point>
      <point x="707" y="308" type="line"></point>
    </contour>
  </outline>
</glyph>
<glyph name="uni00B2" format="1">
  <advance width="814"></advance>
  <unicode hex="00B2"></unicode>
  <outline>
    <contour>
      <point x="127" y="604" type="line"></point>
      <point x="127" y="715" type="line"></point>
      <point x="233" y="812"></point>
      <point x="339" y="908"></point>
      <point x="428" y="1006" type="curve" smooth="yes"></point>
      <point x="465" y="1047"></point>
      <point x="493" y="1084"></point>
      <point x="514" y="1118" type="curve" smooth="yes"></point>
      <point x="535" y="1152"></point>
      <point x="545" y="1183"></point>
      <point x="545" y="1211" type="curve" smooth="yes"></point>
      <point x="545" y="1286"></point>
      <point x="484" y="1323"></point>
      <point x="405" y="1323" type="curve" smooth="yes"></point>
      <point x="310" y="1323"></point>
      <point x="253" y="1262"></point>
      <point x="220" y="1192" type="curve"></point>
      <point x="135" y="1270" type="line"></point>
      <point x="178" y="1370"></point>
      <point x="273" y="1440"></point>
      <point x="411" y="1440" type="curve" smooth="yes"></point>
      <point x="529" y="1440"></point>
      <point x="615" y="1388"></point>
      <point x="654" y="1307" type="curve" smooth="yes"></point>
      <point x="667" y="1279"></point>
      <point x="674" y="1248"></point>
      <point x="674" y="1213" type="curve" smooth="yes"></point>
      <point x="674" y="1108"></point>
      <point x="622" y="1033"></point>
      <point x="568" y="968" type="curve" smooth="yes"></point>
      <point x="494" y="879"></point>
      <point x="401" y="802"></point>
      <point x="309" y="722" type="curve"></point>
      <point x="673" y="722" type="line"></point>
      <point x="673" y="604" type="line"></point>
    </contour>
  </outline>
</glyph>
<glyph name="uni00B3" format="1">
  <advance width="814"></advance>
  <unicode hex="00B3"></unicode>
  <outline>
    <contour>
      <point x="373" y="586" type="curve" smooth="yes"></point>
      <point x="266" y="586"></point>
      <point x="184" y="626"></point>
      <point x="127" y="683" type="curve"></point>
      <point x="187" y="779" type="line"></point>
      <point x="243" y="727"></point>
      <point x="303" y="701"></point>
      <point x="368" y="701" type="curve" smooth="yes"></point>
      <point x="462" y="701"></point>
      <point x="543" y="745"></point>
      <point x="543" y="837" type="curve" smooth="yes"></point>
      <point x="543" y="948"></point>
      <point x="441" y="971"></point>
      <point x="328" y="971" type="curve" smooth="yes"></point>
      <point x="321" y="971"></point>
      <point x="307" y="970"></point>
      <point x="298" y="970" type="curve" smooth="yes"></point>
      <point x="272" y="970" type="line"></point>
      <point x="272" y="1089" type="line"></point>
      <point x="321" y="1089" type="line" smooth="yes"></point>
      <point x="422" y="1089"></point>
      <point x="518" y="1110"></point>
      <point x="518" y="1210" type="curve" smooth="yes"></point>
      <point x="518" y="1291"></point>
      <point x="458" y="1322"></point>
      <point x="377" y="1322" type="curve" smooth="yes"></point>
      <point x="295" y="1322"></point>
      <point x="234" y="1284"></point>
      <point x="185" y="1244" type="curve"></point>
      <point x="127" y="1340" type="line"></point>
      <point x="182" y="1394"></point>
      <point x="275" y="1441"></point>
      <point x="379" y="1441" type="curve" smooth="yes"></point>
      <point x="498" y="1441"></point>
      <point x="586" y="1388"></point>
      <point x="628" y="1310" type="curve" smooth="yes"></point>
      <point x="643" y="1282"></point>
      <point x="651" y="1250"></point>
      <point x="651" y="1213" type="curve" smooth="yes"></point>
      <point x="651" y="1124"></point>
      <point x="606" y="1065"></point>
      <point x="544" y="1032" type="curve"></point>
      <point x="618" y="999"></point>
      <point x="672" y="937"></point>
      <point x="672" y="834" type="curve" smooth="yes"></point>
      <point x="672" y="708"></point>
      <point x="586" y="634"></point>
      <point x="488" y="603" type="curve" smooth="yes"></point>
      <point x="452" y="592"></point>
      <point x="413" y="586"></point>
    </contour>
  </outline>
</glyph>
<glyph name="acute" format="1">
  <advance width="754"></advance>
  <unicode hex="00B4"></unicode>
  <outline>
    <contour>
      <point x="230" y="1136" type="line"></point>
      <point x="456" y="1456" type="line"></point>
      <point x="668" y="1456" type="line"></point>
      <point x="360" y="1136" type="line"></point>
    </contour>
  </outline>
</glyph>
<glyph name="paragraph" format="1">
  <advance width="1116"></advance>
  <unicode hex="00B6"></unicode>
  <outline>
    <contour>
      <point x="431" y="0" type="line"></point>
      <point x="431" y="830" type="line"></point>
      <point x="216" y="830"></point>
      <point x="100" y="946"></point>
      <point x="100" y="1134" type="curve" smooth="yes"></point>
      <point x="100" y="1398"></point>
      <point x="352" y="1455"></point>
      <point x="605" y="1455" type="curve" smooth="yes"></point>
      <point x="986" y="1455" type="line"></point>
      <point x="986" y="1331" type="line"></point>
      <point x="899" y="1331" type="line"></point>
      <point x="899" y="0" type="line"></point>
      <point x="770" y="0" type="line"></point>
      <point x="770" y="1331" type="line"></point>
      <point x="569" y="1331" type="line"></point>
      <point x="569" y="0" type="line"></point>
    </contour>
  </outline>
</glyph>
<glyph name="periodcentered" format="1">
  <advance width="647"></advance>
  <unicode hex="00B7"></unicode>
  <outline>
    <contour>
      <point x="316" y="1134" type="curve" smooth="yes"></point>
      <point x="410" y="1134"></point>
      <point x="458" y="1061"></point>
      <point x="458" y="988" type="curve" smooth="yes"></point>
      <point x="458" y="915"></point>
      <point x="410" y="842"></point>
      <point x="316" y="842" type="curve" smooth="yes"></point>
      <point x="222" y="842"></point>
      <point x="175" y="916"></point>
      <point x="175" y="989" type="curve" smooth="yes"></point>
      <point x="175" y="1062"></point>
      <point x="222" y="1134"></point>
    </contour>
  </outline>
</glyph>
<glyph name="cedilla" format="1">
  <advance width="754"></advance>
  <unicode hex="00B8"></unicode>
  <outline>
    <contour>
      <point x="405" y="-396" type="curve" smooth="yes"></point>
      <point x="345" y="-396"></point>
      <point x="284" y="-385"></point>
      <point x="230" y="-374" type="curve"></point>
      <point x="238" y="-289" type="line"></point>
      <point x="288" y="-301"></point>
      <point x="335" y="-313"></point>
      <point x="389" y="-313" type="curve" smooth="yes"></point>
      <point x="455" y="-313"></point>
      <point x="503" y="-297"></point>
      <point x="503" y="-241" type="curve" smooth="yes"></point>
      <point x="503" y="-182"></point>
      <point x="454" y="-168"></point>
      <point x="394" y="-168" type="curve" smooth="yes"></point>
      <point x="385" y="-168"></point>
      <point x="368" y="-170"></point>
      <point x="357" y="-171" type="curve" smooth="yes"></point>
      <point x="325" y="-173" type="line"></point>
      <point x="358" y="17" type="line"></point>
      <point x="455" y="17" type="line"></point>
      <point x="437" y="-90" type="line"></point>
      <point x="446" y="-90" type="line"></point>
      <point x="550" y="-95"></point>
      <point x="646" y="-131"></point>
      <point x="646" y="-239" type="curve" smooth="yes"></point>
      <point x="646" y="-359"></point>
      <point x="526" y="-396"></point>
    </contour>
  </outline>
</glyph>
<glyph name="uni00B9" format="1">
  <advance width="706"></advance>
  <unicode hex="00B9"></unicode>
  <outline>
    <contour>
      <point x="182" y="604" type="line"></point>
      <point x="182" y="723" type="line"></point>
      <point x="304" y="723" type="line"></point>
      <point x="304" y="1008" type="line" smooth="yes"></point>
      <point x="304" y="1067"></point>
      <point x="303" y="1116"></point>
      <point x="303" y="1168" type="curve" smooth="yes"></point>
      <point x="303" y="1271" type="line"></point>
      <point x="259" y="1248"></point>
      <point x="201" y="1222"></point>
      <point x="151" y="1203" type="curve"></point>
      <point x="152" y="1333" type="line"></point>
      <point x="219" y="1354"></point>
      <point x="268" y="1381"></point>
      <point x="320" y="1412" type="curve"></point>
      <point x="425" y="1427" type="line"></point>
      <point x="425" y="720" type="line"></point>
      <point x="547" y="720" type="line"></point>
      <point x="547" y="604" type="line"></point>
    </contour>
  </outline>
</glyph>
<glyph name="ordmasculine" format="1">
  <advance width="905"></advance>
  <unicode hex="00BA"></unicode>
  <outline>
    <contour>
      <point x="455" y="879" type="curve" smooth="yes"></point>
      <point x="592" y="879"></point>
      <point x="671" y="983"></point>
      <point x="671" y="1123" type="curve" smooth="yes"></point>
      <point x="671" y="1268"></point>
      <point x="592" y="1373"></point>
      <point x="452" y="1373" type="curve" smooth="yes"></point>
      <point x="315" y="1373"></point>
      <point x="237" y="1268"></point>
      <point x="237" y="1127" type="curve" smooth="yes"></point>
      <point x="237" y="981"></point>
      <point x="313" y="879"></point>
    </contour>
    <contour>
      <point x="455" y="771" type="curve" smooth="yes"></point>
      <point x="235" y="771"></point>
      <point x="97" y="905"></point>
      <point x="97" y="1128" type="curve" smooth="yes"></point>
      <point x="97" y="1357"></point>
      <point x="247" y="1480"></point>
      <point x="454" y="1480" type="curve" smooth="yes"></point>
      <point x="681" y="1480"></point>
      <point x="809" y="1326"></point>
      <point x="809" y="1125" type="curve" smooth="yes"></point>
      <point x="809" y="896"></point>
      <point x="663" y="771"></point>
    </contour>
  </outline>
</glyph>
<glyph name="guillemotright" format="1">
  <advance width="935"></advance>
  <unicode hex="00BB"></unicode>
  <outline>
    <contour>
      <point x="226" y="916" type="line"></point>
      <point x="488" y="544" type="line"></point>
      <point x="221" y="173" type="line"></point>
      <point x="61" y="173" type="line"></point>
      <point x="325" y="544" type="line"></point>
      <point x="68" y="916" type="line"></point>
    </contour>
    <contour>
      <point x="609" y="916" type="line"></point>
      <point x="878" y="544" type="line"></point>
      <point x="604" y="173" type="line"></point>
      <point x="453" y="173" type="line"></point>
      <point x="706" y="544" type="line"></point>
      <point x="460" y="916" type="line"></point>
    </contour>
  </outline>
</glyph>
<glyph name="onequarter" format="1">
  <advance width="1689"></advance>
  <unicode hex="00BC"></unicode>
  <outline>
    <contour>
      <point x="1523" y="617" type="line"></point>
      <point x="1523" y="363" type="line"></point>
      <point x="1712" y="363" type="line"></point>
      <point x="1712" y="264" type="line"></point>
      <point x="1524" y="264" type="line"></point>
      <point x="1524" y="0" type="line"></point>
      <point x="1392" y="0" type="line"></point>
      <point x="1392" y="264" type="line"></point>
      <point x="953" y="264" type="line"></point>
      <point x="953" y="355" type="line"></point>
      <point x="1314" y="1026" type="line"></point>
      <point x="1451" y="1026" type="line"></point>
      <point x="1114" y="363" type="line"></point>
      <point x="1392" y="363" type="line"></point>
      <point x="1392" y="617" type="line"></point>
    </contour>
    <contour>
      <point x="155" y="426" type="line"></point>
      <point x="155" y="1351" type="line"></point>
      <point x="70" y="1351" type="line"></point>
      <point x="70" y="1456" type="line"></point>
      <point x="296" y="1456" type="line"></point>
      <point x="296" y="426" type="line"></point>
    </contour>
    <contour>
      <point x="272" y="0" type="line"></point>
      <point x="1105" y="1456" type="line"></point>
      <point x="1254" y="1456" type="line"></point>
      <point x="423" y="0" type="line"></point>
    </contour>
  </outline>
</glyph>
<glyph name="onehalf" format="1">
  <advance width="1810"></advance>
  <unicode hex="00BD"></unicode>
  <outline>
    <contour>
      <point x="1610" y="738" type="curve" smooth="yes"></point>
      <point x="1610" y="855"></point>
      <point x="1558" y="926"></point>
      <point x="1449" y="926" type="curve" smooth="yes"></point>
      <point x="1310" y="926"></point>
      <point x="1221" y="832"></point>
      <point x="1221" y="833" type="curve" smooth="yes"></point>
      <point x="1163" y="950" type="line"></point>
      <point x="1163" y="950"></point>
      <point x="1262" y="1052"></point>
      <point x="1453" y="1052" type="curve" smooth="yes"></point>
      <point x="1634" y="1052"></point>
      <point x="1761" y="927"></point>
      <point x="1761" y="738" type="curve" smooth="yes"></point>
      <point x="1761" y="593"></point>
      <point x="1664" y="486"></point>
      <point x="1542" y="344" type="curve" smooth="yes"></point>
      <point x="1350" y="119" type="line"></point>
      <point x="1741" y="119" type="line"></point>
      <point x="1741" y="0" type="line"></point>
      <point x="1182" y="0" type="line"></point>
      <point x="1182" y="126" type="line"></point>
      <point x="1460" y="451" type="line" smooth="yes"></point>
      <point x="1562" y="571"></point>
      <point x="1610" y="645"></point>
    </contour>
    <contour>
      <point x="155" y="426" type="line"></point>
      <point x="155" y="1351" type="line"></point>
      <point x="70" y="1351" type="line"></point>
      <point x="70" y="1456" type="line"></point>
      <point x="296" y="1456" type="line"></point>
      <point x="296" y="426" type="line"></point>
    </contour>
    <contour>
      <point x="285" y="0" type="line"></point>
      <point x="1118" y="1456" type="line"></point>
      <point x="1267" y="1456" type="line"></point>
      <point x="436" y="0" type="line"></point>
    </contour>
  </outline>
</glyph>
<glyph name="threequarters" format="1">
  <advance width="1735"></advance>
  <unicode hex="00BE"></unicode>
  <outline>
    <contour>
      <point x="145" y="1482" type="curve" smooth="yes"></point>
      <point x="284" y="1482"></point>
      <point x="432" y="1394"></point>
      <point x="432" y="1212" type="curve" smooth="yes"></point>
      <point x="432" y="1096"></point>
      <point x="377" y="1003"></point>
      <point x="277" y="972" type="curve"></point>
      <point x="391" y="945"></point>
      <point x="454" y="847"></point>
      <point x="454" y="711" type="curve" smooth="yes"></point>
      <point x="454" y="516"></point>
      <point x="294" y="411"></point>
      <point x="131" y="411" type="curve" smooth="yes"></point>
      <point x="1" y="411"></point>
      <point x="-92" y="478"></point>
      <point x="-100" y="483" type="curve"></point>
      <point x="-62" y="596" type="line"></point>
      <point x="-36" y="579"></point>
      <point x="31" y="529"></point>
      <point x="124" y="529" type="curve" smooth="yes"></point>
      <point x="235" y="529"></point>
      <point x="324" y="599"></point>
      <point x="324" y="718" type="curve" smooth="yes"></point>
      <point x="324" y="856"></point>
      <point x="247" y="914"></point>
      <point x="106" y="914" type="curve" smooth="yes"></point>
      <point x="47" y="914" type="line"></point>
      <point x="47" y="1028" type="line"></point>
      <point x="95" y="1028" type="line" smooth="yes"></point>
      <point x="228" y="1028"></point>
      <point x="303" y="1090"></point>
      <point x="303" y="1199" type="curve" smooth="yes"></point>
      <point x="303" y="1299"></point>
      <point x="226" y="1364"></point>
      <point x="132" y="1364" type="curve" smooth="yes"></point>
      <point x="33" y="1364"></point>
      <point x="-34" y="1320"></point>
      <point x="-74" y="1277" type="curve"></point>
      <point x="-128" y="1370" type="line"></point>
      <point x="-70" y="1440"></point>
      <point x="27" y="1482"></point>
    </contour>
    <contour>
      <point x="1569" y="617" type="line"></point>
      <point x="1569" y="363" type="line"></point>
      <point x="1758" y="363" type="line"></point>
      <point x="1758" y="264" type="line"></point>
      <point x="1570" y="264" type="line"></point>
      <point x="1570" y="0" type="line"></point>
      <point x="1438" y="0" type="line"></point>
      <point x="1438" y="264" type="line"></point>
      <point x="999" y="264" type="line"></point>
      <point x="999" y="355" type="line"></point>
      <point x="1360" y="1026" type="line"></point>
      <point x="1497" y="1026" type="line"></point>
      <point x="1160" y="363" type="line"></point>
      <point x="1438" y="363" type="line"></point>
      <point x="1438" y="617" type="line"></point>
    </contour>
    <contour>
      <point x="327" y="0" type="line"></point>
      <point x="1160" y="1456" type="line"></point>
      <point x="1309" y="1456" type="line"></point>
      <point x="478" y="0" type="line"></point>
    </contour>
  </outline>
</glyph>
<glyph name="questiondown" format="1">
  <advance width="935"></advance>
  <unicode hex="00BF"></unicode>
  <outline>
    <contour>
      <point x="597" y="1158" type="curve" smooth="yes"></point>
      <point x="666" y="1158"></point>
      <point x="704" y="1109"></point>
      <point x="704" y="1052" type="curve" smooth="yes"></point>
      <point x="704" y="986"></point>
      <point x="650" y="947"></point>
      <point x="596" y="947" type="curve" smooth="yes"></point>
      <point x="528" y="947"></point>
      <point x="491" y="996"></point>
      <point x="491" y="1053" type="curve" smooth="yes"></point>
      <point x="491" y="1119"></point>
      <point x="543" y="1158"></point>
    </contour>
    <contour>
      <point x="299" y="-70" type="curve" smooth="yes"></point>
      <point x="299" y="-221"></point>
      <point x="417" y="-278"></point>
      <point x="555" y="-278" type="curve" smooth="yes"></point>
      <point x="655" y="-278"></point>
      <point x="769" y="-246"></point>
      <point x="839" y="-207" type="curve"></point>
      <point x="839" y="-358" type="line"></point>
      <point x="759" y="-397"></point>
      <point x="656" y="-428"></point>
      <point x="550" y="-428" type="curve" smooth="yes"></point>
      <point x="273" y="-428"></point>
      <point x="130" y="-283"></point>
      <point x="130" y="-78" type="curve" smooth="yes"></point>
      <point x="130" y="295"></point>
      <point x="541" y="447"></point>
      <point x="541" y="757" type="curve"></point>
      <point x="666" y="757" type="line"></point>
      <point x="666" y="395"></point>
      <point x="299" y="266"></point>
    </contour>
  </outline>
</glyph>
<glyph name="Acircumflex" format="1">
  <advance width="1382"></advance>
  <unicode hex="00C2"></unicode>
  <outline>
    <contour>
      <point x="607" y="1967" type="line"></point>
      <point x="764" y="1967" type="line"></point>
      <point x="993" y="1643" type="line"></point>
      <point x="861" y="1643" type="line"></point>
      <point x="683" y="1859" type="line"></point>
      <point x="505" y="1643" type="line"></point>
      <point x="379" y="1643" type="line"></point>
    </contour>
    <contour>
      <point x="422" y="615" type="curve"></point>
      <point x="943" y="615" type="line"></point>
      <point x="856" y="871"></point>
      <point x="768" y="1125"></point>
      <point x="685" y="1385" type="curve"></point>
      <point x="596" y="1130"></point>
      <point x="509" y="872"></point>
    </contour>
    <contour>
      <point x="27" y="0" type="line"></point>
      <point x="596" y="1560" type="line"></point>
      <point x="774" y="1560" type="line"></point>
      <point x="1344" y="0" type="line"></point>
      <point x="1163" y="0" type="line"></point>
      <point x="995" y="479" type="line"></point>
      <point x="370" y="479" type="line"></point>
      <point x="203" y="0" type="line"></point>
    </contour>
  </outline>
</glyph>
<glyph name="Atilde" format="1">
  <advance width="1382"></advance>
  <unicode hex="00C3"></unicode>
  <outline>
    <contour>
      <point x="793" y="1648" type="curve" smooth="yes"></point>
      <point x="692" y="1648"></point>
      <point x="646" y="1739"></point>
      <point x="570" y="1739" type="curve" smooth="yes"></point>
      <point x="525" y="1739"></point>
      <point x="516" y="1700"></point>
      <point x="509" y="1647" type="curve"></point>
      <point x="404" y="1647" type="line"></point>
      <point x="414" y="1763"></point>
      <point x="479" y="1863"></point>
      <point x="603" y="1863" type="curve" smooth="yes"></point>
      <point x="710" y="1863"></point>
      <point x="768" y="1773"></point>
      <point x="820" y="1773" type="curve" smooth="yes"></point>
      <point x="866" y="1773"></point>
      <point x="873" y="1820"></point>
      <point x="880" y="1869" type="curve"></point>
      <point x="988" y="1869" type="line"></point>
      <point x="975" y="1756"></point>
      <point x="917" y="1648"></point>
    </contour>
    <contour>
      <point x="422" y="615" type="curve"></point>
      <point x="943" y="615" type="line"></point>
      <point x="856" y="871"></point>
      <point x="768" y="1125"></point>
      <point x="685" y="1385" type="curve"></point>
      <point x="596" y="1130"></point>
      <point x="509" y="872"></point>
    </contour>
    <contour>
      <point x="27" y="0" type="line"></point>
      <point x="596" y="1560" type="line"></point>
      <point x="774" y="1560" type="line"></point>
      <point x="1344" y="0" type="line"></point>
      <point x="1163" y="0" type="line"></point>
      <point x="995" y="479" type="line"></point>
      <point x="370" y="479" type="line"></point>
      <point x="203" y="0" type="line"></point>
    </contour>
  </outline>
</glyph>
<glyph name="Adieresis" format="1">
  <advance width="1382"></advance>
  <unicode hex="00C4"></unicode>
  <outline>
    <contour>
      <point x="784" y="1746" type="curve" smooth="yes"></point>
      <point x="784" y="1770" type="line" smooth="yes"></point>
      <point x="784" y="1815"></point>
      <point x="821" y="1852"></point>
      <point x="866" y="1852" type="curve" smooth="yes"></point>
      <point x="911" y="1852"></point>
      <point x="948" y="1815"></point>
      <point x="948" y="1770" type="curve" smooth="yes"></point>
      <point x="948" y="1746" type="line" smooth="yes"></point>
      <point x="948" y="1701"></point>
      <point x="911" y="1664"></point>
      <point x="866" y="1664" type="curve" smooth="yes"></point>
      <point x="821" y="1664"></point>
      <point x="784" y="1701"></point>
    </contour>
    <contour>
      <point x="452" y="1746" type="curve" smooth="yes"></point>
      <point x="452" y="1770" type="line" smooth="yes"></point>
      <point x="452" y="1815"></point>
      <point x="489" y="1852"></point>
      <point x="534" y="1852" type="curve" smooth="yes"></point>
      <point x="579" y="1852"></point>
      <point x="616" y="1815"></point>
      <point x="616" y="1770" type="curve" smooth="yes"></point>
      <point x="616" y="1746" type="line" smooth="yes"></point>
      <point x="616" y="1701"></point>
      <point x="579" y="1664"></point>
      <point x="534" y="1664" type="curve" smooth="yes"></point>
      <point x="489" y="1664"></point>
      <point x="452" y="1701"></point>
    </contour>
    <contour>
      <point x="422" y="615" type="curve"></point>
      <point x="943" y="615" type="line"></point>
      <point x="856" y="871"></point>
      <point x="768" y="1125"></point>
      <point x="685" y="1385" type="curve"></point>
      <point x="596" y="1130"></point>
      <point x="509" y="872"></point>
    </contour>
    <contour>
      <point x="27" y="0" type="line"></point>
      <point x="596" y="1560" type="line"></point>
      <point x="774" y="1560" type="line"></point>
      <point x="1344" y="0" type="line"></point>
      <point x="1163" y="0" type="line"></point>
      <point x="995" y="479" type="line"></point>
      <point x="370" y="479" type="line"></point>
      <point x="203" y="0" type="line"></point>
    </contour>
  </outline>
</glyph>
<glyph name="Aring" format="1">
  <advance width="1382"></advance>
  <unicode hex="00C5"></unicode>
  <outline>
    <contour>
      <point x="681" y="1579" type="curve" smooth="yes"></point>
      <point x="738" y="1579"></point>
      <point x="782" y="1627"></point>
      <point x="782" y="1685" type="curve" smooth="yes"></point>
      <point x="782" y="1742"></point>
      <point x="738" y="1790"></point>
      <point x="681" y="1790" type="curve" smooth="yes"></point>
      <point x="623" y="1790"></point>
      <point x="580" y="1742"></point>
      <point x="580" y="1685" type="curve" smooth="yes"></point>
      <point x="580" y="1627"></point>
      <point x="623" y="1579"></point>
    </contour>
    <contour>
      <point x="681" y="1864" type="curve" smooth="yes"></point>
      <point x="786" y="1864"></point>
      <point x="871" y="1788"></point>
      <point x="871" y="1684" type="curve" smooth="yes"></point>
      <point x="871" y="1617.14"></point>
      <point x="836" y="1562.45"></point>
      <point x="784" y="1531.54" type="curve"></point>
      <point x="1344" y="0" type="line"></point>
      <point x="1163" y="0" type="line"></point>
      <point x="995" y="479" type="line"></point>
      <point x="370" y="479" type="line"></point>
      <point x="203" y="0" type="line"></point>
      <point x="27" y="0" type="line"></point>
      <point x="584" y="1527.98" type="line"></point>
      <point x="528" y="1558.14"></point>
      <point x="491" y="1614.5"></point>
      <point x="491" y="1684" type="curve" smooth="yes"></point>
      <point x="491" y="1788"></point>
      <point x="577" y="1864"></point>
    </contour>
    <contour>
      <point x="422" y="615" type="curve"></point>
      <point x="943" y="615" type="line"></point>
      <point x="856" y="871"></point>
      <point x="768" y="1125"></point>
      <point x="685" y="1385" type="curve"></point>
      <point x="596" y="1130"></point>
      <point x="509" y="872"></point>
    </contour>
  </outline>
</glyph>
<glyph name="AE" format="1">
  <advance width="1735"></advance>
  <unicode hex="00C6"></unicode>
  <outline>
    <contour>
      <point x="411" y="546" type="line"></point>
      <point x="937" y="546" type="line"></point>
      <point x="879" y="1308" type="line"></point>
      <point x="831" y="1308" type="line"></point>
    </contour>
    <contour>
      <point x="-74" y="0" type="line"></point>
      <point x="728" y="1456" type="line"></point>
      <point x="1737" y="1456" type="line"></point>
      <point x="1737" y="1308" type="line"></point>
      <point x="1038" y="1308" type="line"></point>
      <point x="1074" y="820" type="line"></point>
      <point x="1696" y="820" type="line"></point>
      <point x="1696" y="672" type="line"></point>
      <point x="1092" y="672" type="line"></point>
      <point x="1132" y="148" type="line"></point>
      <point x="1760" y="148" type="line"></point>
      <point x="1760" y="0" type="line"></point>
      <point x="985" y="0" type="line"></point>
      <point x="955" y="398" type="line"></point>
      <point x="335" y="398" type="line"></point>
      <point x="116" y="0" type="line"></point>
    </contour>
  </outline>
</glyph>
<glyph name="Ccedilla" format="1">
  <advance width="1357"></advance>
  <unicode hex="00C7"></unicode>
  <outline>
    <contour>
      <point x="787" y="-396" type="curve" smooth="yes"></point>
      <point x="727" y="-396"></point>
      <point x="666" y="-385"></point>
      <point x="612" y="-374" type="curve"></point>
      <point x="620" y="-289" type="line"></point>
      <point x="670" y="-301"></point>
      <point x="717" y="-313"></point>
      <point x="771" y="-313" type="curve" smooth="yes"></point>
      <point x="837" y="-313"></point>
      <point x="885" y="-297"></point>
      <point x="885" y="-241" type="curve" smooth="yes"></point>
      <point x="885" y="-182"></point>
      <point x="836" y="-168"></point>
      <point x="776" y="-168" type="curve" smooth="yes"></point>
      <point x="767" y="-168"></point>
      <point x="750" y="-170"></point>
      <point x="739" y="-171" type="curve" smooth="yes"></point>
      <point x="707" y="-173" type="line"></point>
      <point x="733" y="-18.0647" type="line"></point>
      <point x="398" y="24.9017"></point>
      <point x="130" y="300.372"></point>
      <point x="130" y="783" type="curve" smooth="yes"></point>
      <point x="130" y="1310"></point>
      <point x="450" y="1586"></point>
      <point x="828" y="1586" type="curve" smooth="yes"></point>
      <point x="992" y="1586"></point>
      <point x="1124" y="1548"></point>
      <point x="1270" y="1466" type="curve"></point>
      <point x="1209" y="1332" type="line"></point>
      <point x="1082" y="1402"></point>
      <point x="961" y="1436"></point>
      <point x="847" y="1436" type="curve" smooth="yes"></point>
      <point x="548" y="1436"></point>
      <point x="313" y="1198"></point>
      <point x="313" y="783" type="curve" smooth="yes"></point>
      <point x="313" y="375"></point>
      <point x="539" y="126"></point>
      <point x="841" y="126" type="curve" smooth="yes"></point>
      <point x="953" y="126"></point>
      <point x="1092" y="161"></point>
      <point x="1217" y="230" type="curve"></point>
      <point x="1270" y="100" type="line"></point>
      <point x="1124" y="18.3508"></point>
      <point x="993" y="-23.6399"></point>
      <point x="830" y="-23.9977" type="curve"></point>
      <point x="819" y="-90" type="line"></point>
      <point x="828" y="-90" type="line"></point>
      <point x="932" y="-95"></point>
      <point x="1028" y="-131"></point>
      <point x="1028" y="-239" type="curve" smooth="yes"></point>
      <point x="1028" y="-359"></point>
      <point x="908" y="-396"></point>
    </contour>
  </outline>
</glyph>
<glyph name="Egrave" format="1">
  <advance width="1176"></advance>
  <unicode hex="00C8"></unicode>
  <outline>
    <contour>
      <point x="577" y="1648" type="line"></point>
      <point x="245" y="1968" type="line"></point>
      <point x="459" y="1968" type="line"></point>
      <point x="706" y="1648" type="line"></point>
    </contour>
    <contour>
      <point x="172" y="0" type="line"></point>
      <point x="172" y="1560" type="line"></point>
      <point x="1019" y="1560" type="line"></point>
      <point x="1019" y="1422" type="line"></point>
      <point x="346" y="1422" type="line"></point>
      <point x="346" y="870" type="line"></point>
      <point x="981" y="870" type="line"></point>
      <point x="981" y="732" type="line"></point>
      <point x="346" y="732" type="line"></point>
      <point x="346" y="138" type="line"></point>
      <point x="1069" y="138" type="line"></point>
      <point x="1069" y="0" type="line"></point>
    </contour>
  </outline>
</glyph>
<glyph name="Eacute" format="1">
  <advance width="1176"></advance>
  <unicode hex="00C9"></unicode>
  <outline>
    <contour>
      <point x="559" y="1624" type="line"></point>
      <point x="785" y="1944" type="line"></point>
      <point x="997" y="1944" type="line"></point>
      <point x="689" y="1624" type="line"></point>
    </contour>
    <contour>
      <point x="172" y="0" type="line"></point>
      <point x="172" y="1560" type="line"></point>
      <point x="1019" y="1560" type="line"></point>
      <point x="1019" y="1422" type="line"></point>
      <point x="346" y="1422" type="line"></point>
      <point x="346" y="870" type="line"></point>
      <point x="981" y="870" type="line"></point>
      <point x="981" y="732" type="line"></point>
      <point x="346" y="732" type="line"></point>
      <point x="346" y="138" type="line"></point>
      <point x="1069" y="138" type="line"></point>
      <point x="1069" y="0" type="line"></point>
    </contour>
  </outline>
</glyph>
<glyph name="Ecircumflex" format="1">
  <advance width="1176"></advance>
  <unicode hex="00CA"></unicode>
  <outline>
    <contour>
      <point x="549" y="1967" type="line"></point>
      <point x="706" y="1967" type="line"></point>
      <point x="935" y="1643" type="line"></point>
      <point x="803" y="1643" type="line"></point>
      <point x="625" y="1859" type="line"></point>
      <point x="447" y="1643" type="line"></point>
      <point x="321" y="1643" type="line"></point>
    </contour>
    <contour>
      <point x="173" y="0" type="line"></point>
      <point x="173" y="1560" type="line"></point>
      <point x="1020" y="1560" type="line"></point>
      <point x="1020" y="1422" type="line"></point>
      <point x="347" y="1422" type="line"></point>
      <point x="347" y="870" type="line"></point>
      <point x="982" y="870" type="line"></point>
      <point x="982" y="732" type="line"></point>
      <point x="347" y="732" type="line"></point>
      <point x="347" y="138" type="line"></point>
      <point x="1070" y="138" type="line"></point>
      <point x="1070" y="0" type="line"></point>
    </contour>
  </outline>
</glyph>
<glyph name="Edieresis" format="1">
  <advance width="1176"></advance>
  <unicode hex="00CB"></unicode>
  <outline>
    <contour>
      <point x="725" y="1746" type="curve" smooth="yes"></point>
      <point x="725" y="1770" type="line" smooth="yes"></point>
      <point x="725" y="1815"></point>
      <point x="762" y="1852"></point>
      <point x="807" y="1852" type="curve" smooth="yes"></point>
      <point x="852" y="1852"></point>
      <point x="889" y="1815"></point>
      <point x="889" y="1770" type="curve" smooth="yes"></point>
      <point x="889" y="1746" type="line" smooth="yes"></point>
      <point x="889" y="1701"></point>
      <point x="852" y="1664"></point>
      <point x="807" y="1664" type="curve" smooth="yes"></point>
      <point x="762" y="1664"></point>
      <point x="725" y="1701"></point>
    </contour>
    <contour>
      <point x="393" y="1746" type="curve" smooth="yes"></point>
      <point x="393" y="1770" type="line" smooth="yes"></point>
      <point x="393" y="1815"></point>
      <point x="430" y="1852"></point>
      <point x="475" y="1852" type="curve" smooth="yes"></point>
      <point x="520" y="1852"></point>
      <point x="557" y="1815"></point>
      <point x="557" y="1770" type="curve" smooth="yes"></point>
      <point x="557" y="1746" type="line" smooth="yes"></point>
      <point x="557" y="1701"></point>
      <point x="520" y="1664"></point>
      <point x="475" y="1664" type="curve" smooth="yes"></point>
      <point x="430" y="1664"></point>
      <point x="393" y="1701"></point>
    </contour>
    <contour>
      <point x="172" y="0" type="line"></point>
      <point x="172" y="1560" type="line"></point>
      <point x="1019" y="1560" type="line"></point>
      <point x="1019" y="1422" type="line"></point>
      <point x="346" y="1422" type="line"></point>
      <point x="346" y="870" type="line"></point>
      <point x="981" y="870" type="line"></point>
      <point x="981" y="732" type="line"></point>
      <point x="346" y="732" type="line"></point>
      <point x="346" y="138" type="line"></point>
      <point x="1069" y="138" type="line"></point>
      <point x="1069" y="0" type="line"></point>
    </contour>
  </outline>
</glyph>
<glyph name="Igrave" format="1">
  <advance width="905"></advance>
  <unicode hex="00CC"></unicode>
  <outline>
    <contour>
      <point x="420" y="1648" type="line"></point>
      <point x="88" y="1968" type="line"></point>
      <point x="302" y="1968" type="line"></point>
      <point x="549" y="1648" type="line"></point>
    </contour>
    <contour>
      <point x="829" y="0" type="line"></point>
      <point x="239" y="0" type="line"></point>
      <point x="239" y="124" type="line"></point>
      <point x="447" y="124" type="line"></point>
      <point x="447" y="1436" type="line"></point>
      <point x="239" y="1436" type="line"></point>
      <point x="239" y="1560" type="line"></point>
      <point x="829" y="1560" type="line"></point>
      <point x="829" y="1436" type="line"></point>
      <point x="621" y="1436" type="line"></point>
      <point x="621" y="124" type="line"></point>
      <point x="829" y="124" type="line"></point>
    </contour>
  </outline>
</glyph>
<glyph name="Iacute" format="1">
  <advance width="970"></advance>
  <unicode hex="00CD"></unicode>
  <outline>
    <contour>
      <point x="347" y="1624" type="line"></point>
      <point x="573" y="1944" type="line"></point>
      <point x="785" y="1944" type="line"></point>
      <point x="477" y="1624" type="line"></point>
    </contour>
    <contour>
      <point x="774" y="0" type="line"></point>
      <point x="184" y="0" type="line"></point>
      <point x="184" y="124" type="line"></point>
      <point x="392" y="124" type="line"></point>
      <point x="392" y="1436" type="line"></point>
      <point x="184" y="1436" type="line"></point>
      <point x="184" y="1560" type="line"></point>
      <point x="774" y="1560" type="line"></point>
      <point x="774" y="1436" type="line"></point>
      <point x="566" y="1436" type="line"></point>
      <point x="566" y="124" type="line"></point>
      <point x="774" y="124" type="line"></point>
    </contour>
  </outline>
</glyph>
<glyph name="Icircumflex" format="1">
  <advance width="965"></advance>
  <unicode hex="00CE"></unicode>
  <outline>
    <contour>
      <point x="358" y="1967" type="line"></point>
      <point x="515" y="1967" type="line"></point>
      <point x="744" y="1643" type="line"></point>
      <point x="612" y="1643" type="line"></point>
      <point x="434" y="1859" type="line"></point>
      <point x="256" y="1643" type="line"></point>
      <point x="130" y="1643" type="line"></point>
    </contour>
    <contour>
      <point x="796" y="0" type="line"></point>
      <point x="206" y="0" type="line"></point>
      <point x="206" y="124" type="line"></point>
      <point x="414" y="124" type="line"></point>
      <point x="414" y="1436" type="line"></point>
      <point x="206" y="1436" type="line"></point>
      <point x="206" y="1560" type="line"></point>
      <point x="796" y="1560" type="line"></point>
      <point x="796" y="1436" type="line"></point>
      <point x="588" y="1436" type="line"></point>
      <point x="588" y="124" type="line"></point>
      <point x="796" y="124" type="line"></point>
    </contour>
  </outline>
</glyph>
<glyph name="Idieresis" format="1">
  <advance width="970"></advance>
  <unicode hex="00CF"></unicode>
  <outline>
    <contour>
      <point x="510" y="1746" type="curve" smooth="yes"></point>
      <point x="510" y="1770" type="line" smooth="yes"></point>
      <point x="510" y="1815"></point>
      <point x="547" y="1852"></point>
      <point x="592" y="1852" type="curve" smooth="yes"></point>
      <point x="637" y="1852"></point>
      <point x="674" y="1815"></point>
      <point x="674" y="1770" type="curve" smooth="yes"></point>
      <point x="674" y="1746" type="line" smooth="yes"></point>
      <point x="674" y="1701"></point>
      <point x="637" y="1664"></point>
      <point x="592" y="1664" type="curve" smooth="yes"></point>
      <point x="547" y="1664"></point>
      <point x="510" y="1701"></point>
    </contour>
    <contour>
      <point x="178" y="1746" type="curve" smooth="yes"></point>
      <point x="178" y="1770" type="line" smooth="yes"></point>
      <point x="178" y="1815"></point>
      <point x="215" y="1852"></point>
      <point x="260" y="1852" type="curve" smooth="yes"></point>
      <point x="305" y="1852"></point>
      <point x="342" y="1815"></point>
      <point x="342" y="1770" type="curve" smooth="yes"></point>
      <point x="342" y="1746" type="line" smooth="yes"></point>
      <point x="342" y="1701"></point>
      <point x="305" y="1664"></point>
      <point x="260" y="1664" type="curve" smooth="yes"></point>
      <point x="215" y="1664"></point>
      <point x="178" y="1701"></point>
    </contour>
    <contour>
      <point x="771" y="0" type="line"></point>
      <point x="181" y="0" type="line"></point>
      <point x="181" y="124" type="line"></point>
      <point x="389" y="124" type="line"></point>
      <point x="389" y="1436" type="line"></point>
      <point x="181" y="1436" type="line"></point>
      <point x="181" y="1560" type="line"></point>
      <point x="771" y="1560" type="line"></point>
      <point x="771" y="1436" type="line"></point>
      <point x="563" y="1436" type="line"></point>
      <point x="563" y="124" type="line"></point>
      <point x="771" y="124" type="line"></point>
    </contour>
  </outline>
</glyph>
<glyph name="Eth" format="1">
  <advance width="1529"></advance>
  <unicode hex="00D0"></unicode>
  <outline>
    <contour>
      <point x="356" y="138" type="line"></point>
      <point x="605" y="138" type="line" smooth="yes"></point>
      <point x="975" y="138"></point>
      <point x="1202" y="388"></point>
      <point x="1202" y="775" type="curve" smooth="yes"></point>
      <point x="1202" y="1232"></point>
      <point x="943" y="1422"></point>
      <point x="511" y="1422" type="curve" smooth="yes"></point>
      <point x="356" y="1422" type="line"></point>
      <point x="356" y="800" type="line"></point>
      <point x="594" y="800" type="line"></point>
      <point x="594" y="672" type="line"></point>
      <point x="356" y="672" type="line"></point>
    </contour>
    <contour>
      <point x="182" y="800" type="line"></point>
      <point x="182" y="1560" type="line"></point>
      <point x="507" y="1560" type="line" smooth="yes"></point>
      <point x="1033" y="1560"></point>
      <point x="1384" y="1327"></point>
      <point x="1384" y="778" type="curve" smooth="yes"></point>
      <point x="1384" y="295"></point>
      <point x="1060" y="0"></point>
      <point x="594" y="0" type="curve" smooth="yes"></point>
      <point x="182" y="0" type="line"></point>
      <point x="182" y="672" type="line"></point>
      <point x="27" y="672" type="line"></point>
      <point x="27" y="800" type="line"></point>
    </contour>
  </outline>
</glyph>
<glyph name="Ntilde" format="1">
  <advance width="1529"></advance>
  <unicode hex="00D1"></unicode>
  <outline>
    <contour>
      <point x="899" y="1648" type="curve" smooth="yes"></point>
      <point x="798" y="1648"></point>
      <point x="752" y="1739"></point>
      <point x="676" y="1739" type="curve" smooth="yes"></point>
      <point x="631" y="1739"></point>
      <point x="622" y="1700"></point>
      <point x="615" y="1647" type="curve"></point>
      <point x="510" y="1647" type="line"></point>
      <point x="520" y="1763"></point>
      <point x="585" y="1863"></point>
      <point x="709" y="1863" type="curve" smooth="yes"></point>
      <point x="816" y="1863"></point>
      <point x="874" y="1773"></point>
      <point x="926" y="1773" type="curve" smooth="yes"></point>
      <point x="972" y="1773"></point>
      <point x="979" y="1820"></point>
      <point x="986" y="1869" type="curve"></point>
      <point x="1094" y="1869" type="line"></point>
      <point x="1081" y="1756"></point>
      <point x="1023" y="1648"></point>
    </contour>
    <contour>
      <point x="184" y="0" type="line"></point>
      <point x="184" y="1560" type="line"></point>
      <point x="389" y="1560" type="line"></point>
      <point x="659" y="1111"></point>
      <point x="932" y="665"></point>
      <point x="1200" y="215" type="curve"></point>
      <point x="1200" y="1560" type="line"></point>
      <point x="1371" y="1560" type="line"></point>
      <point x="1371" y="0" type="line"></point>
      <point x="1164" y="0" type="line"></point>
      <point x="425" y="1217" type="line"></point>
      <point x="356" y="1341" type="line"></point>
      <point x="356" y="0" type="line"></point>
    </contour>
  </outline>
</glyph>
<glyph name="Ograve" format="1">
  <advance width="1629"></advance>
  <unicode hex="00D2"></unicode>
  <outline>
    <contour>
      <point x="729" y="1648" type="line"></point>
      <point x="397" y="1968" type="line"></point>
      <point x="611" y="1968" type="line"></point>
      <point x="858" y="1648" type="line"></point>
    </contour>
    <contour>
      <point x="815" y="126" type="curve" smooth="yes"></point>
      <point x="1102" y="126"></point>
      <point x="1328" y="353"></point>
      <point x="1328" y="782" type="curve" smooth="yes"></point>
      <point x="1328" y="1211"></point>
      <point x="1102" y="1436"></point>
      <point x="815" y="1436" type="curve" smooth="yes"></point>
      <point x="528" y="1436"></point>
      <point x="302" y="1211"></point>
      <point x="302" y="782" type="curve" smooth="yes"></point>
      <point x="302" y="353"></point>
      <point x="528" y="126"></point>
    </contour>
    <contour>
      <point x="815" y="-24" type="curve" smooth="yes"></point>
      <point x="360" y="-24"></point>
      <point x="118" y="340"></point>
      <point x="118" y="782" type="curve" smooth="yes"></point>
      <point x="118" y="1226"></point>
      <point x="360" y="1586"></point>
      <point x="815" y="1586" type="curve" smooth="yes"></point>
      <point x="1270" y="1586"></point>
      <point x="1512" y="1226"></point>
      <point x="1512" y="782" type="curve" smooth="yes"></point>
      <point x="1512" y="340"></point>
      <point x="1270" y="-24"></point>
    </contour>
  </outline>
</glyph>
<glyph name="Ocircumflex" format="1">
  <advance width="1629"></advance>
  <unicode hex="00D4"></unicode>
  <outline>
    <contour>
      <point x="700" y="1967" type="line"></point>
      <point x="857" y="1967" type="line"></point>
      <point x="1086" y="1643" type="line"></point>
      <point x="954" y="1643" type="line"></point>
      <point x="776" y="1859" type="line"></point>
      <point x="598" y="1643" type="line"></point>
      <point x="472" y="1643" type="line"></point>
    </contour>
    <contour>
      <point x="815" y="126" type="curve" smooth="yes"></point>
      <point x="1102" y="126"></point>
      <point x="1328" y="353"></point>
      <point x="1328" y="782" type="curve" smooth="yes"></point>
      <point x="1328" y="1211"></point>
      <point x="1102" y="1436"></point>
      <point x="815" y="1436" type="curve" smooth="yes"></point>
      <point x="528" y="1436"></point>
      <point x="302" y="1211"></point>
      <point x="302" y="782" type="curve" smooth="yes"></point>
      <point x="302" y="353"></point>
      <point x="528" y="126"></point>
    </contour>
    <contour>
      <point x="815" y="-24" type="curve" smooth="yes"></point>
      <point x="360" y="-24"></point>
      <point x="118" y="340"></point>
      <point x="118" y="782" type="curve" smooth="yes"></point>
      <point x="118" y="1226"></point>
      <point x="360" y="1586"></point>
      <point x="815" y="1586" type="curve" smooth="yes"></point>
      <point x="1270" y="1586"></point>
      <point x="1512" y="1226"></point>
      <point x="1512" y="782" type="curve" smooth="yes"></point>
      <point x="1512" y="340"></point>
      <point x="1270" y="-24"></point>
    </contour>
  </outline>
</glyph>
<glyph name="Otilde" format="1">
  <advance width="1629"></advance>
  <unicode hex="00D5"></unicode>
  <outline>
    <contour>
      <point x="886" y="1648" type="curve" smooth="yes"></point>
      <point x="785" y="1648"></point>
      <point x="739" y="1739"></point>
      <point x="663" y="1739" type="curve" smooth="yes"></point>
      <point x="618" y="1739"></point>
      <point x="609" y="1700"></point>
      <point x="602" y="1647" type="curve"></point>
      <point x="497" y="1647" type="line"></point>
      <point x="507" y="1763"></point>
      <point x="572" y="1863"></point>
      <point x="696" y="1863" type="curve" smooth="yes"></point>
      <point x="803" y="1863"></point>
      <point x="861" y="1773"></point>
      <point x="913" y="1773" type="curve" smooth="yes"></point>
      <point x="959" y="1773"></point>
      <point x="966" y="1820"></point>
      <point x="973" y="1869" type="curve"></point>
      <point x="1081" y="1869" type="line"></point>
      <point x="1068" y="1756"></point>
      <point x="1010" y="1648"></point>
    </contour>
    <contour>
      <point x="815" y="126" type="curve" smooth="yes"></point>
      <point x="1102" y="126"></point>
      <point x="1328" y="353"></point>
      <point x="1328" y="782" type="curve" smooth="yes"></point>
      <point x="1328" y="1211"></point>
      <point x="1102" y="1436"></point>
      <point x="815" y="1436" type="curve" smooth="yes"></point>
      <point x="528" y="1436"></point>
      <point x="302" y="1211"></point>
      <point x="302" y="782" type="curve" smooth="yes"></point>
      <point x="302" y="353"></point>
      <point x="528" y="126"></point>
    </contour>
    <contour>
      <point x="815" y="-24" type="curve" smooth="yes"></point>
      <point x="360" y="-24"></point>
      <point x="118" y="340"></point>
      <point x="118" y="782" type="curve" smooth="yes"></point>
      <point x="118" y="1226"></point>
      <point x="360" y="1586"></point>
      <point x="815" y="1586" type="curve" smooth="yes"></point>
      <point x="1270" y="1586"></point>
      <point x="1512" y="1226"></point>
      <point x="1512" y="782" type="curve" smooth="yes"></point>
      <point x="1512" y="340"></point>
      <point x="1270" y="-24"></point>
    </contour>
  </outline>
</glyph>
<glyph name="Odieresis" format="1">
  <advance width="1629"></advance>
  <unicode hex="00D6"></unicode>
  <outline>
    <contour>
      <point x="877" y="1746" type="curve" smooth="yes"></point>
      <point x="877" y="1770" type="line" smooth="yes"></point>
      <point x="877" y="1815"></point>
      <point x="914" y="1852"></point>
      <point x="959" y="1852" type="curve" smooth="yes"></point>
      <point x="1004" y="1852"></point>
      <point x="1041" y="1815"></point>
      <point x="1041" y="1770" type="curve" smooth="yes"></point>
      <point x="1041" y="1746" type="line" smooth="yes"></point>
      <point x="1041" y="1701"></point>
      <point x="1004" y="1664"></point>
      <point x="959" y="1664" type="curve" smooth="yes"></point>
      <point x="914" y="1664"></point>
      <point x="877" y="1701"></point>
    </contour>
    <contour>
      <point x="545" y="1746" type="curve" smooth="yes"></point>
      <point x="545" y="1770" type="line" smooth="yes"></point>
      <point x="545" y="1815"></point>
      <point x="582" y="1852"></point>
      <point x="627" y="1852" type="curve" smooth="yes"></point>
      <point x="672" y="1852"></point>
      <point x="709" y="1815"></point>
      <point x="709" y="1770" type="curve" smooth="yes"></point>
      <point x="709" y="1746" type="line" smooth="yes"></point>
      <point x="709" y="1701"></point>
      <point x="672" y="1664"></point>
      <point x="627" y="1664" type="curve" smooth="yes"></point>
      <point x="582" y="1664"></point>
      <point x="545" y="1701"></point>
    </contour>
    <contour>
      <point x="815" y="126" type="curve" smooth="yes"></point>
      <point x="1102" y="126"></point>
      <point x="1328" y="353"></point>
      <point x="1328" y="782" type="curve" smooth="yes"></point>
      <point x="1328" y="1211"></point>
      <point x="1102" y="1436"></point>
      <point x="815" y="1436" type="curve" smooth="yes"></point>
      <point x="528" y="1436"></point>
      <point x="302" y="1211"></point>
      <point x="302" y="782" type="curve" smooth="yes"></point>
      <point x="302" y="353"></point>
      <point x="528" y="126"></point>
    </contour>
    <contour>
      <point x="815" y="-24" type="curve" smooth="yes"></point>
      <point x="360" y="-24"></point>
      <point x="118" y="340"></point>
      <point x="118" y="782" type="curve" smooth="yes"></point>
      <point x="118" y="1226"></point>
      <point x="360" y="1586"></point>
      <point x="815" y="1586" type="curve" smooth="yes"></point>
      <point x="1270" y="1586"></point>
      <point x="1512" y="1226"></point>
      <point x="1512" y="782" type="curve" smooth="yes"></point>
      <point x="1512" y="340"></point>
      <point x="1270" y="-24"></point>
    </contour>
  </outline>
</glyph>
<glyph name="multiply" format="1">
  <advance width="965"></advance>
  <unicode hex="00D7"></unicode>
  <outline>
    <contour>
      <point x="182" y="154" type="line"></point>
      <point x="79" y="257" type="line"></point>
      <point x="373" y="554" type="line"></point>
      <point x="79" y="851" type="line"></point>
      <point x="182" y="954" type="line"></point>
      <point x="473" y="657" type="line"></point>
      <point x="763" y="954" type="line"></point>
      <point x="867" y="850" type="line"></point>
      <point x="572" y="554" type="line"></point>
      <point x="867" y="258" type="line"></point>
      <point x="763" y="154" type="line"></point>
      <point x="473" y="450" type="line"></point>
    </contour>
  </outline>
</glyph>
<glyph name="Oslash" format="1">
  <advance width="1629"></advance>
  <unicode hex="00D8"></unicode>
  <outline>
    <contour>
      <point x="513" y="-175" type="line"></point>
      <point x="410" y="-142" type="line"></point>
      <point x="488" y="52.5208" type="line"></point>
      <point x="245" y="181.935"></point>
      <point x="118" y="461.456"></point>
      <point x="118" y="782" type="curve" smooth="yes"></point>
      <point x="118" y="1226"></point>
      <point x="360" y="1586"></point>
      <point x="815" y="1586" type="curve" smooth="yes"></point>
      <point x="917" y="1586"></point>
      <point x="1008" y="1567.85"></point>
      <point x="1088" y="1534.68" type="curve"></point>
      <point x="1117" y="1604" type="line"></point>
      <point x="1224" y="1571" type="line"></point>
      <point x="1188" y="1482.75" type="line"></point>
      <point x="1401" y="1344.83"></point>
      <point x="1512" y="1082.68"></point>
      <point x="1512" y="782" type="curve" smooth="yes"></point>
      <point x="1512" y="340"></point>
      <point x="1270" y="-24"></point>
      <point x="815" y="-24" type="curve" smooth="yes"></point>
      <point x="732" y="-24"></point>
      <point x="656" y="-12.0055"></point>
      <point x="588" y="10.2727" type="curve"></point>
    </contour>
    <contour>
      <point x="815" y="126" type="curve" smooth="yes"></point>
      <point x="1102" y="126"></point>
      <point x="1328" y="353"></point>
      <point x="1328" y="782" type="curve" smooth="yes"></point>
      <point x="1328" y="1036.36"></point>
      <point x="1248" y="1219"></point>
      <point x="1124" y="1325.55" type="curve"></point>
      <point x="647" y="154.551" type="line"></point>
      <point x="699" y="135.589"></point>
      <point x="756" y="126"></point>
    </contour>
    <contour>
      <point x="549" y="203.689" type="curve"></point>
      <point x="1029" y="1387.89" type="line"></point>
      <point x="964" y="1419.83"></point>
      <point x="891" y="1436"></point>
      <point x="815" y="1436" type="curve" smooth="yes"></point>
      <point x="528" y="1436"></point>
      <point x="302" y="1211"></point>
      <point x="302" y="782" type="curve" smooth="yes"></point>
      <point x="302" y="498.811"></point>
      <point x="400" y="303.643"></point>
    </contour>
  </outline>
</glyph>
<glyph name="Ugrave" format="1">
  <advance width="1418"></advance>
  <unicode hex="00D9"></unicode>
  <outline>
    <contour>
      <point x="583" y="1648" type="line"></point>
      <point x="251" y="1968" type="line"></point>
      <point x="465" y="1968" type="line"></point>
      <point x="712" y="1648" type="line"></point>
    </contour>
    <contour>
      <point x="723" y="-24" type="curve" smooth="yes"></point>
      <point x="354" y="-24"></point>
      <point x="155" y="157"></point>
      <point x="155" y="541" type="curve" smooth="yes"></point>
      <point x="155" y="1560" type="line"></point>
      <point x="329" y="1560" type="line"></point>
      <point x="329" y="546" type="line" smooth="yes"></point>
      <point x="329" y="260"></point>
      <point x="461" y="126"></point>
      <point x="722" y="126" type="curve" smooth="yes"></point>
      <point x="964" y="126"></point>
      <point x="1095" y="279"></point>
      <point x="1095" y="539" type="curve" smooth="yes"></point>
      <point x="1095" y="1560" type="line"></point>
      <point x="1268" y="1560" type="line"></point>
      <point x="1268" y="551" type="line"></point>
      <point x="1266" y="191"></point>
      <point x="1071" y="-24"></point>
    </contour>
  </outline>
</glyph>
<glyph name="Uacute" format="1">
  <advance width="1418"></advance>
  <unicode hex="00DA"></unicode>
  <outline>
    <contour>
      <point x="565" y="1624" type="line"></point>
      <point x="791" y="1944" type="line"></point>
      <point x="1003" y="1944" type="line"></point>
      <point x="695" y="1624" type="line"></point>
    </contour>
    <contour>
      <point x="723" y="-24" type="curve" smooth="yes"></point>
      <point x="354" y="-24"></point>
      <point x="155" y="157"></point>
      <point x="155" y="541" type="curve" smooth="yes"></point>
      <point x="155" y="1560" type="line"></point>
      <point x="329" y="1560" type="line"></point>
      <point x="329" y="546" type="line" smooth="yes"></point>
      <point x="329" y="260"></point>
      <point x="461" y="126"></point>
      <point x="722" y="126" type="curve" smooth="yes"></point>
      <point x="964" y="126"></point>
      <point x="1095" y="279"></point>
      <point x="1095" y="539" type="curve" smooth="yes"></point>
      <point x="1095" y="1560" type="line"></point>
      <point x="1268" y="1560" type="line"></point>
      <point x="1268" y="551" type="line"></point>
      <point x="1266" y="191"></point>
      <point x="1071" y="-24"></point>
    </contour>
  </outline>
</glyph>
<glyph name="Ucircumflex" format="1">
  <advance width="1418"></advance>
  <unicode hex="00DB"></unicode>
  <outline>
    <contour>
      <point x="554" y="1967" type="line"></point>
      <point x="711" y="1967" type="line"></point>
      <point x="940" y="1643" type="line"></point>
      <point x="808" y="1643" type="line"></point>
      <point x="630" y="1859" type="line"></point>
      <point x="452" y="1643" type="line"></point>
      <point x="326" y="1643" type="line"></point>
    </contour>
    <contour>
      <point x="723" y="-24" type="curve" smooth="yes"></point>
      <point x="354" y="-24"></point>
      <point x="155" y="157"></point>
      <point x="155" y="541" type="curve" smooth="yes"></point>
      <point x="155" y="1560" type="line"></point>
      <point x="329" y="1560" type="line"></point>
      <point x="329" y="546" type="line" smooth="yes"></point>
      <point x="329" y="260"></point>
      <point x="461" y="126"></point>
      <point x="722" y="126" type="curve" smooth="yes"></point>
      <point x="964" y="126"></point>
      <point x="1095" y="279"></point>
      <point x="1095" y="539" type="curve" smooth="yes"></point>
      <point x="1095" y="1560" type="line"></point>
      <point x="1268" y="1560" type="line"></point>
      <point x="1268" y="551" type="line"></point>
      <point x="1266" y="191"></point>
      <point x="1071" y="-24"></point>
    </contour>
  </outline>
</glyph>
<glyph name="Udieresis" format="1">
  <advance width="1441"></advance>
  <unicode hex="00DC"></unicode>
  <outline>
    <contour>
      <point x="730" y="1746" type="curve" smooth="yes"></point>
      <point x="730" y="1770" type="line" smooth="yes"></point>
      <point x="730" y="1815"></point>
      <point x="767" y="1852"></point>
      <point x="812" y="1852" type="curve" smooth="yes"></point>
      <point x="857" y="1852"></point>
      <point x="894" y="1815"></point>
      <point x="894" y="1770" type="curve" smooth="yes"></point>
      <point x="894" y="1746" type="line" smooth="yes"></point>
      <point x="894" y="1701"></point>
      <point x="857" y="1664"></point>
      <point x="812" y="1664" type="curve" smooth="yes"></point>
      <point x="767" y="1664"></point>
      <point x="730" y="1701"></point>
    </contour>
    <contour>
      <point x="398" y="1746" type="curve" smooth="yes"></point>
      <point x="398" y="1770" type="line" smooth="yes"></point>
      <point x="398" y="1815"></point>
      <point x="435" y="1852"></point>
      <point x="480" y="1852" type="curve" smooth="yes"></point>
      <point x="525" y="1852"></point>
      <point x="562" y="1815"></point>
      <point x="562" y="1770" type="curve" smooth="yes"></point>
      <point x="562" y="1746" type="line" smooth="yes"></point>
      <point x="562" y="1701"></point>
      <point x="525" y="1664"></point>
      <point x="480" y="1664" type="curve" smooth="yes"></point>
      <point x="435" y="1664"></point>
      <point x="398" y="1701"></point>
    </contour>
    <contour>
      <point x="722" y="-24" type="curve" smooth="yes"></point>
      <point x="353" y="-24"></point>
      <point x="154" y="157"></point>
      <point x="154" y="541" type="curve" smooth="yes"></point>
      <point x="154" y="1560" type="line"></point>
      <point x="328" y="1560" type="line"></point>
      <point x="328" y="546" type="line" smooth="yes"></point>
      <point x="328" y="260"></point>
      <point x="460" y="126"></point>
      <point x="721" y="126" type="curve" smooth="yes"></point>
      <point x="963" y="126"></point>
      <point x="1094" y="279"></point>
      <point x="1094" y="539" type="curve" smooth="yes"></point>
      <point x="1094" y="1560" type="line"></point>
      <point x="1267" y="1560" type="line"></point>
      <point x="1267" y="551" type="line"></point>
      <point x="1265" y="191"></point>
      <point x="1070" y="-24"></point>
    </contour>
  </outline>
</glyph>
<glyph name="Yacute" format="1">
  <advance width="1059"></advance>
  <unicode hex="00DD"></unicode>
  <outline>
    <contour>
      <point x="443" y="1624" type="line"></point>
      <point x="669" y="1944" type="line"></point>
      <point x="881" y="1944" type="line"></point>
      <point x="573" y="1624" type="line"></point>
    </contour>
    <contour>
      <point x="441" y="0" type="line"></point>
      <point x="441" y="652" type="line"></point>
      <point x="-74" y="1560" type="line"></point>
      <point x="112" y="1560" type="line"></point>
      <point x="528" y="797" type="line"></point>
      <point x="948" y="1560" type="line"></point>
      <point x="1138" y="1560" type="line"></point>
      <point x="615" y="655" type="line"></point>
      <point x="615" y="0" type="line"></point>
    </contour>
  </outline>
</glyph>
<glyph name="Thorn" format="1">
  <advance width="1294"></advance>
  <unicode hex="00DE"></unicode>
  <outline>
    <contour>
      <point x="350" y="592" type="line"></point>
      <point x="654" y="592" type="line" smooth="yes"></point>
      <point x="864" y="592"></point>
      <point x="968" y="674"></point>
      <point x="968" y="874" type="curve" smooth="yes"></point>
      <point x="968" y="1114"></point>
      <point x="837" y="1164"></point>
      <point x="607" y="1164" type="curve" smooth="yes"></point>
      <point x="350" y="1164" type="line"></point>
    </contour>
    <contour>
      <point x="178" y="0" type="line"></point>
      <point x="178" y="1456" type="line"></point>
      <point x="350" y="1456" type="line"></point>
      <point x="350" y="1312" type="line"></point>
      <point x="565" y="1312" type="line" smooth="yes"></point>
      <point x="906" y="1312"></point>
      <point x="1152" y="1231"></point>
      <point x="1152" y="876" type="curve" smooth="yes"></point>
      <point x="1152" y="554"></point>
      <point x="938" y="443"></point>
      <point x="616" y="443" type="curve" smooth="yes"></point>
      <point x="350" y="443" type="line"></point>
      <point x="350" y="0" type="line"></point>
    </contour>
  </outline>
</glyph>
